if (_typeface_js && _typeface_js.loadFace) _typeface_js.loadFace({"glyphs":{"S":{"x_min":173.625,"x_max":1215.375,"ha":1389,"o":"m 694 521 l 694 348 l 868 348 l 868 174 l 520 174 l 520 348 l 173 348 l 173 174 l 347 174 l 347 0 l 1041 0 l 1041 174 l 1215 174 l 1215 521 l 1041 521 l 1041 694 l 694 694 l 694 868 l 520 868 l 520 1042 l 868 1042 l 868 868 l 1215 868 l 1215 1042 l 1041 1042 l 1041 1216 l 347 1216 l 347 1042 l 173 1042 l 173 695 l 347 695 l 347 521 l 694 521 "},"¦":{"x_min":520.875,"x_max":868.125,"ha":1389,"o":"m 520 694 l 868 694 l 868 1215 l 520 1215 l 520 694 m 868 0 l 868 520 l 520 520 l 520 0 l 868 0 "},"/":{"x_min":0,"x_max":1389,"ha":1389,"o":"m 1389 1216 l 1041 1216 l 1041 1042 l 868 1042 l 868 868 l 694 868 l 694 694 l 520 694 l 520 521 l 347 521 l 347 347 l 173 347 l 173 174 l 0 174 l 0 0 l 347 0 l 347 174 l 520 174 l 520 347 l 694 347 l 694 521 l 868 521 l 868 694 l 1041 694 l 1041 868 l 1215 868 l 1215 1042 l 1389 1042 l 1389 1216 "},"y":{"x_min":173.625,"x_max":1215.375,"ha":1389,"o":"m 868 173 l 1041 173 l 1041 347 l 1215 347 l 1215 868 l 868 868 l 868 347 l 520 347 l 520 868 l 173 868 l 173 347 l 347 347 l 347 173 l 520 173 l 520 0 l 347 0 l 347 -174 l 694 -174 l 694 0 l 868 0 l 868 173 "},"Á":{"x_min":173.625,"x_max":1215.375,"ha":1389,"o":"m 1041 1216 l 694 1216 l 694 1042 l 520 1042 l 520 868 l 347 868 l 347 694 l 173 694 l 173 0 l 520 0 l 520 347 l 868 347 l 868 0 l 1215 0 l 1215 694 l 1041 694 l 1041 868 l 868 868 l 868 1042 l 1041 1042 l 1041 1216 m 520 521 l 520 694 l 868 694 l 868 521 l 520 521 "},"g":{"x_min":173.625,"x_max":1215.375,"ha":1389,"o":"m 1215 0 l 1215 868 l 347 868 l 347 694 l 173 694 l 173 347 l 347 347 l 347 173 l 868 173 l 868 0 l 347 0 l 347 -174 l 1041 -174 l 1041 0 l 1215 0 m 868 694 l 868 347 l 520 347 l 520 694 l 868 694 "},"²":{"x_min":173.625,"x_max":1041.75,"ha":1389,"o":"m 173 521 l 173 347 l 1041 347 l 1041 521 l 694 521 l 694 694 l 868 694 l 868 868 l 1041 868 l 1041 1042 l 868 1042 l 868 1216 l 173 1216 l 173 1042 l 694 1042 l 694 868 l 520 868 l 520 694 l 347 694 l 347 521 l 173 521 "},"ë":{"x_min":173.625,"x_max":1215.375,"ha":1389,"o":"m 173 694 l 173 174 l 347 174 l 347 0 l 1041 0 l 1041 174 l 520 174 l 520 347 l 1215 347 l 1215 694 l 1041 694 l 1041 868 l 347 868 l 347 694 l 173 694 m 1215 1042 l 1215 1216 l 868 1216 l 868 1042 l 1215 1042 m 520 1042 l 520 1216 l 173 1216 l 173 1042 l 520 1042 m 520 694 l 868 694 l 868 521 l 520 521 l 520 694 "},"ƒ":{"x_min":167,"x_max":1380.671875,"ha":1389,"o":"m 896 1112 q 734 1135 816 1135 l 727 1135 q 512 1089 614 1135 q 334 967 411 1044 q 212 788 257 890 q 167 572 167 686 l 167 557 q 212 345 167 445 q 334 167 257 244 q 511 45 411 90 q 723 0 612 0 l 734 0 q 896 23 814 0 l 896 297 q 734 254 823 254 l 727 254 q 611 279 666 254 q 513 346 555 304 q 446 444 471 388 q 421 561 421 500 l 421 575 q 446 692 421 636 q 513 791 471 748 q 611 859 555 833 q 727 885 666 885 l 734 885 q 896 840 822 885 l 896 1112 m 913 321 l 1373 321 q 1380 327 1380 323 q 1377 332 1380 329 l 1168 542 l 913 542 q 909 539 912 542 q 907 530 907 537 l 907 333 q 913 321 907 323 m 1377 807 q 1380 811 1380 807 q 1373 817 1380 814 l 913 817 q 908 814 911 814 q 907 805 907 814 l 907 608 q 913 596 907 598 l 1168 596 l 1377 807 "},"Î":{"x_min":173.625,"x_max":1215.375,"ha":1389,"o":"m 1215 1042 l 868 1042 l 868 1216 l 520 1216 l 520 1042 l 868 1042 l 868 868 l 520 868 l 520 1042 l 173 1042 l 173 868 l 347 868 l 347 694 l 520 694 l 520 174 l 347 174 l 347 0 l 1041 0 l 1041 174 l 868 174 l 868 694 l 1041 694 l 1041 868 l 1215 868 l 1215 1042 "},"e":{"x_min":173.625,"x_max":1215.375,"ha":1389,"o":"m 173 694 l 173 174 l 347 174 l 347 0 l 1041 0 l 1041 174 l 520 174 l 520 347 l 1215 347 l 1215 694 l 1041 694 l 1041 868 l 347 868 l 347 694 l 173 694 m 520 694 l 868 694 l 868 521 l 520 521 l 520 694 "},"Ã":{"x_min":0,"x_max":1389,"ha":1389,"o":"m 694 1216 l 174 1216 l 174 1042 l 694 1042 l 694 868 l 347 868 l 347 694 l 174 694 l 174 0 l 521 0 l 521 347 l 868 347 l 868 0 l 1215 0 l 1215 694 l 1041 694 l 1041 868 l 1215 868 l 1215 1042 l 694 1042 l 694 1216 m 520 521 l 520 694 l 868 694 l 868 521 l 520 521 m 1389 1216 l 1215 1216 l 1215 1042 l 1389 1042 l 1389 1216 m 174 1042 l 0 1042 l 0 868 l 174 868 l 174 1042 "},"J":{"x_min":173.625,"x_max":1215.375,"ha":1389,"o":"m 173 347 l 173 173 l 347 173 l 347 0 l 1041 0 l 1041 173 l 1215 173 l 1215 1215 l 868 1215 l 868 173 l 520 173 l 520 347 l 173 347 "},"»":{"x_min":0,"x_max":1389,"ha":1389,"o":"m 1389 521 l 1389 695 l 1215 695 l 1215 868 l 1041 868 l 1041 1042 l 694 1042 l 694 868 l 868 868 l 868 695 l 1041 695 l 1041 521 l 868 521 l 868 347 l 694 347 l 694 173 l 1041 173 l 1041 347 l 1215 347 l 1215 521 l 1389 521 m 694 521 l 694 695 l 520 695 l 520 868 l 347 868 l 347 1042 l 0 1042 l 0 868 l 173 868 l 173 695 l 347 695 l 347 521 l 173 521 l 173 347 l 0 347 l 0 173 l 347 173 l 347 347 l 520 347 l 520 521 l 694 521 "},"©":{"x_min":0,"x_max":1389,"ha":1389,"o":"m 174 1042 l 1215 1042 l 1215 174 l 1389 174 l 1389 1042 l 1215 1042 l 1215 1216 l 174 1216 l 174 1042 m 0 1042 l 0 174 l 174 174 l 174 0 l 1215 0 l 1215 174 l 174 174 l 174 1042 l 0 1042 m 520 521 l 520 347 l 1041 347 l 1041 521 l 694 521 l 694 695 l 1041 695 l 1041 868 l 520 868 l 520 694 l 347 695 l 347 521 l 520 521 "},"ò":{"x_min":173.625,"x_max":1215.375,"ha":1389,"o":"m 868 694 l 868 868 l 694 868 l 694 1042 l 347 1042 l 347 868 l 520 868 l 520 694 l 347 694 l 347 521 l 173 521 l 173 174 l 347 174 l 347 0 l 1041 0 l 1041 174 l 1215 174 l 1215 521 l 1041 521 l 1041 694 l 868 694 m 520 521 l 868 521 l 868 174 l 520 174 l 520 521 "},"^":{"x_min":0.125,"x_max":1215.875,"ha":1389,"o":"m 868 695 l 868 521 l 1215 521 l 1215 695 l 1042 695 l 1042 868 l 868 868 l 868 1041 l 695 1041 l 695 1215 l 521 1215 l 521 1041 l 347 1041 l 347 868 l 173 868 l 173 695 l 0 695 l 0 521 l 347 521 l 347 695 l 521 695 l 521 868 l 695 868 l 695 695 l 868 695 "},"«":{"x_min":0,"x_max":1389,"ha":1389,"o":"m 0 521 l 173 521 l 173 347 l 347 347 l 347 173 l 694 173 l 694 347 l 520 347 l 520 521 l 347 521 l 347 695 l 520 695 l 520 868 l 694 868 l 694 1042 l 347 1042 l 347 868 l 173 868 l 173 695 l 0 695 l 0 521 m 694 521 l 868 521 l 868 347 l 1041 347 l 1041 173 l 1389 173 l 1389 347 l 1215 347 l 1215 521 l 1041 521 l 1041 695 l 1215 695 l 1215 868 l 1389 868 l 1389 1042 l 1041 1042 l 1041 868 l 868 868 l 868 695 l 694 695 l 694 521 "},"D":{"x_min":173.625,"x_max":1215.375,"ha":1389,"o":"m 1041 347 l 1215 347 l 1215 868 l 1041 868 l 1041 1042 l 868 1042 l 868 1216 l 173 1216 l 173 0 l 868 0 l 868 174 l 1041 174 l 1041 347 m 520 1042 l 694 1042 l 694 868 l 868 868 l 868 347 l 694 347 l 694 174 l 520 174 l 520 1042 "},"":{"x_min":0,"x_max":0,"ha":0},"":{"x_min":0,"x_max":0,"ha":0},"ÿ":{"x_min":173.625,"x_max":1215.375,"ha":1389,"o":"m 868 173 l 1041 173 l 1041 347 l 1215 347 l 1215 694 l 868 694 l 868 347 l 520 347 l 520 694 l 173 694 l 173 347 l 347 347 l 347 173 l 520 173 l 520 0 l 347 0 l 347 -174 l 694 -174 l 694 0 l 868 0 l 868 173 m 1215 1042 l 868 1042 l 868 868 l 1215 868 l 1215 1042 m 520 1042 l 173 1042 l 173 868 l 520 868 l 520 1042 "},"í":{"x_min":520.875,"x_max":1041.75,"ha":1389,"o":"m 694 0 l 1041 0 l 1041 174 l 868 174 l 868 694 l 520 694 l 520 174 l 694 174 l 694 0 m 1041 1042 l 1041 1216 l 694 1216 l 694 1042 l 520 1042 l 520 868 l 868 868 l 868 1042 l 1041 1042 "},"ˆ":{"x_min":6,"x_max":2926.625,"ha":2952,"o":"m 267 597 q 266 581 267 593 q 264 569 265 570 l 97 97 q 76 68 90 79 q 45 49 61 58 q 17 29 29 40 q 6 0 6 18 l 233 0 q 222 26 233 19 q 198 38 211 33 q 175 50 186 43 q 164 75 164 56 q 164 86 164 77 q 166 97 165 95 l 326 541 l 326 0 l 388 0 l 722 500 l 722 486 q 709 446 722 484 q 679 354 697 408 q 642 245 661 301 q 611 152 623 188 q 604 135 608 145 q 595 113 600 125 q 588 93 591 102 q 583 83 584 84 q 558 61 575 70 q 525 43 541 52 q 495 24 508 34 q 483 0 483 13 l 843 0 q 834 24 843 16 q 816 36 826 31 q 798 47 807 41 q 790 68 790 54 q 791 76 790 70 q 791 83 791 81 l 930 597 q 952 622 936 616 q 985 630 968 627 q 1016 639 1002 633 q 1030 666 1030 645 l 763 666 l 507 305 l 507 666 l 250 666 q 243 661 248 666 q 236 652 237 655 q 235 650 236 652 q 235 645 235 647 q 239 632 235 636 q 251 626 244 629 q 262 618 257 623 q 267 597 267 612 m 1526 265 q 1534 186 1526 227 q 1561 108 1543 144 q 1611 46 1580 72 q 1684 13 1641 20 q 1742 4 1705 8 q 1814 0 1779 0 q 1900 2 1858 0 q 1948 12 1941 5 q 1961 20 1951 13 q 1982 34 1970 26 q 2006 50 1994 41 q 2026 63 2018 58 q 2043 77 2032 68 q 2064 94 2054 86 q 2082 109 2075 102 q 2091 116 2090 115 q 2106 142 2096 123 q 2127 181 2116 161 q 2146 221 2137 202 q 2158 247 2155 240 q 2188 257 2172 251 q 2218 272 2204 263 q 2243 295 2233 281 q 2252 326 2252 308 l 1937 326 q 1945 295 1937 306 q 1961 272 1952 283 q 1978 251 1970 262 q 1986 222 1986 240 q 1970 163 1986 191 q 1932 112 1955 134 q 1879 77 1908 90 q 1822 63 1850 63 q 1775 78 1794 63 q 1745 114 1757 93 q 1728 162 1733 136 q 1723 212 1723 188 q 1730 282 1723 240 q 1748 371 1736 325 q 1780 463 1761 418 q 1826 546 1800 509 q 1886 606 1852 583 q 1961 629 1919 629 q 2035 604 2011 629 q 2073 549 2059 579 q 2099 494 2087 519 q 2139 469 2111 469 q 2174 490 2159 469 q 2197 539 2189 511 q 2209 597 2205 568 q 2214 645 2214 627 q 2182 643 2193 645 q 2164 636 2171 640 q 2150 630 2157 633 q 2130 627 2143 627 q 2091 634 2108 627 q 2056 647 2073 640 q 2018 661 2039 655 q 1968 668 1997 668 q 1802 641 1882 668 q 1661 561 1723 613 q 1563 435 1600 509 q 1526 265 1526 361 m 2778 764 l 2764 750 l 2291 96 q 2256 69 2277 77 q 2214 54 2234 62 q 2177 35 2193 46 q 2162 0 2162 24 l 2462 0 q 2450 30 2462 20 q 2425 49 2439 41 q 2399 67 2411 58 q 2387 96 2387 77 q 2394 121 2387 103 q 2412 159 2401 139 q 2434 193 2422 178 q 2458 208 2447 208 l 2652 208 l 2652 69 q 2639 51 2652 53 q 2609 45 2626 48 q 2580 34 2593 42 q 2566 0 2566 26 l 2926 0 q 2914 29 2926 19 q 2888 48 2903 39 q 2861 67 2873 56 q 2847 96 2848 77 l 2791 764 l 2778 764 m 1237 612 q 1236 604 1237 609 q 1236 597 1236 598 l 1069 83 q 1045 57 1063 65 q 1009 43 1027 50 q 975 29 990 37 q 961 0 961 20 l 1343 0 q 1334 24 1343 16 q 1316 38 1326 31 q 1298 52 1307 44 q 1290 75 1290 59 q 1291 86 1290 77 q 1291 97 1291 95 l 1444 583 q 1468 613 1451 604 q 1501 627 1484 622 q 1531 641 1518 633 q 1544 666 1544 648 l 1183 666 q 1191 643 1183 648 q 1210 635 1200 637 q 1229 629 1220 633 q 1237 612 1237 626 m 2652 472 q 2656 433 2654 461 q 2660 375 2658 405 q 2664 316 2662 344 q 2666 277 2666 289 l 2666 264 l 2500 264 q 2514 285 2502 269 q 2527 305 2525 301 q 2552 339 2534 315 q 2589 389 2569 362 q 2627 439 2609 415 q 2652 472 2646 462 "},"w":{"x_min":0.125,"x_max":1215.875,"ha":1389,"o":"m 0 868 l 0 173 l 173 173 l 173 0 l 521 0 l 521 173 l 695 173 l 695 0 l 1042 0 l 1042 173 l 1215 173 l 1215 868 l 868 868 l 868 347 l 695 347 l 695 520 l 521 520 l 521 347 l 347 347 l 347 868 l 0 868 "},"$":{"x_min":173.625,"x_max":1215.375,"ha":1389,"o":"m 868 0 l 868 173 l 1041 173 l 1041 347 l 1215 347 l 1215 521 l 1041 521 l 1041 694 l 520 694 l 520 868 l 1215 868 l 1215 1042 l 868 1042 l 868 1215 l 520 1215 l 520 1042 l 347 1042 l 347 868 l 173 868 l 173 694 l 347 694 l 347 521 l 868 521 l 868 347 l 173 347 l 173 173 l 520 173 l 520 0 l 868 0 "},"\\":{"x_min":0,"x_max":1389,"ha":1389,"o":"m 347 1042 l 347 1216 l 0 1216 l 0 1042 l 173 1042 l 173 868 l 347 868 l 347 694 l 520 694 l 520 521 l 694 521 l 694 347 l 868 347 l 868 174 l 1041 174 l 1041 0 l 1389 0 l 1389 174 l 1215 174 l 1215 347 l 1041 347 l 1041 521 l 868 521 l 868 694 l 694 694 l 694 868 l 520 868 l 520 1042 l 347 1042 "},"Ì":{"x_min":347.25,"x_max":1041.75,"ha":1389,"o":"m 868 1042 l 694 1042 l 694 1216 l 347 1216 l 347 1042 l 520 1042 l 520 868 l 347 868 l 347 694 l 520 694 l 520 174 l 347 174 l 347 0 l 1041 0 l 1041 174 l 868 174 l 868 694 l 1041 694 l 1041 868 l 868 868 l 868 1042 "},"µ":{"x_min":173.625,"x_max":1389,"ha":1389,"o":"m 1389 0 l 1389 174 l 1215 174 l 1215 868 l 868 868 l 868 174 l 520 174 l 520 868 l 173 868 l 173 -174 l 520 -174 l 520 0 l 1389 0 "},"Ç":{"x_min":173.625,"x_max":1215.375,"ha":1389,"o":"m 694 0 l 520 0 l 520 -174 l 868 -174 l 868 0 l 1041 0 l 1041 173 l 1215 173 l 1215 347 l 694 347 l 694 520 l 520 520 l 520 868 l 694 868 l 694 1042 l 1215 1042 l 1215 1216 l 520 1216 l 520 1042 l 347 1042 l 347 868 l 173 868 l 173 520 l 347 520 l 347 347 l 520 347 l 520 173 l 694 173 l 694 0 "},"-":{"x_min":173.625,"x_max":1215.375,"ha":1389,"o":"m 173 695 l 173 521 l 1215 521 l 1215 695 l 173 695 "},"Q":{"x_min":0,"x_max":1215.375,"ha":1389,"o":"m 0 1042 l 0 174 l 173 174 l 173 0 l 1215 0 l 1215 174 l 1041 174 l 1041 1042 l 868 1042 l 868 1216 l 173 1216 l 173 1042 l 0 1042 m 522 174 l 347 174 l 347 1042 l 694 1042 l 694 346 l 520 346 l 522 174 "},"M":{"x_min":0.125,"x_max":1215.875,"ha":1389,"o":"m 521 694 l 521 520 l 695 520 l 695 694 l 868 694 l 868 0 l 1215 0 l 1215 1215 l 868 1215 l 868 1041 l 695 1041 l 695 867 l 521 867 l 521 1041 l 347 1041 l 347 1215 l 0 1215 l 0 0 l 347 0 l 347 694 l 521 694 "},"C":{"x_min":173.625,"x_max":1215.375,"ha":1389,"o":"m 173 868 l 173 347 l 347 347 l 347 174 l 520 174 l 520 0 l 1215 0 l 1215 174 l 694 174 l 694 347 l 520 347 l 520 868 l 694 868 l 694 1042 l 1215 1042 l 1215 1216 l 520 1216 l 520 1042 l 347 1042 l 347 868 l 173 868 "},"!":{"x_min":520.875,"x_max":868.125,"ha":1389,"o":"m 520 1215 l 520 520 l 868 520 l 868 1215 l 520 1215 m 520 174 l 520 0 l 868 0 l 868 174 l 520 174 "},"ç":{"x_min":173.625,"x_max":1041.75,"ha":1389,"o":"m 520 0 l 520 -174 l 868 -174 l 868 0 l 1041 0 l 1041 174 l 520 174 l 520 694 l 1041 694 l 1041 868 l 347 868 l 347 694 l 173 694 l 173 174 l 347 174 l 347 0 l 520 0 "},"È":{"x_min":173.625,"x_max":1215.375,"ha":1389,"o":"m 868 1042 l 694 1042 l 694 1216 l 347 1216 l 347 1042 l 520 1042 l 520 868 l 173 868 l 173 0 l 1215 0 l 1215 174 l 520 174 l 520 347 l 868 347 l 868 521 l 520 521 l 520 694 l 1215 694 l 1215 868 l 868 868 l 868 1042 "},"{":{"x_min":173.625,"x_max":1215.375,"ha":1389,"o":"m 520 174 l 694 174 l 694 0 l 1215 0 l 1215 174 l 868 174 l 868 521 l 694 521 l 694 695 l 868 695 l 868 1042 l 1215 1042 l 1215 1216 l 694 1216 l 694 1042 l 520 1042 l 520 695 l 173 695 l 173 521 l 520 521 l 520 174 "},"X":{"x_min":0,"x_max":1389,"ha":1389,"o":"m 1215 1042 l 1389 1042 l 1389 1216 l 1041 1216 l 1041 1042 l 868 1042 l 868 868 l 520 868 l 520 1042 l 347 1042 l 347 1216 l 0 1216 l 0 1042 l 173 1042 l 173 868 l 347 868 l 347 694 l 520 694 l 520 520 l 347 520 l 347 347 l 173 347 l 173 175 l 0 175 l 0 0 l 347 0 l 347 174 l 520 174 l 520 347 l 868 347 l 868 174 l 1041 174 l 1041 0 l 1389 0 l 1389 174 l 1215 174 l 1215 347 l 1041 347 l 1041 521 l 868 521 l 868 694 l 1041 694 l 1041 868 l 1215 868 l 1215 1042 "},"ô":{"x_min":173.625,"x_max":1215.375,"ha":1389,"o":"m 173 521 l 173 174 l 347 174 l 347 0 l 1041 0 l 1041 174 l 1215 174 l 1215 521 l 1041 521 l 1041 695 l 347 695 l 347 521 l 173 521 m 868 1042 l 868 1216 l 520 1216 l 520 1042 l 868 1042 l 868 868 l 1215 868 l 1215 1042 l 868 1042 m 520 521 l 868 521 l 868 174 l 520 174 l 520 521 m 520 868 l 520 1042 l 173 1042 l 173 868 l 520 868 "},"¼":{"x_min":-0.625,"x_max":1389.625,"ha":1389,"o":"m 347 521 l 347 347 l 173 347 l 173 174 l 0 174 l 0 0 l 347 0 l 347 174 l 520 174 l 520 347 l 694 347 l 694 521 l 868 521 l 868 694 l 1042 694 l 1042 868 l 1216 868 l 1216 1042 l 868 1042 l 868 868 l 694 868 l 694 694 l 520 694 l 520 521 l 347 521 m 1216 -174 l 1216 0 l 1389 0 l 1389 174 l 1216 174 l 1216 521 l 1042 521 l 1042 347 l 868 347 l 868 174 l 694 174 l 694 0 l 1042 0 l 1042 -174 l 1216 -174 m 347 520 l 347 1215 l 173 1215 l 173 1042 l 0 1042 l 0 868 l 173 868 l 173 520 l 347 520 "},"#":{"x_min":0,"x_max":1215.375,"ha":1389,"o":"m 1215 347 l 1215 521 l 1041 521 l 1041 694 l 1215 694 l 1215 868 l 1041 868 l 1041 1215 l 694 1215 l 694 868 l 520 868 l 520 1215 l 173 1215 l 173 868 l 0 868 l 0 694 l 173 694 l 173 521 l 0 521 l 0 347 l 173 347 l 173 0 l 520 0 l 520 347 l 694 347 l 694 0 l 1041 0 l 1041 347 l 1215 347 m 520 694 l 694 694 l 694 521 l 520 521 l 520 694 "},"Ê":{"x_min":173.625,"x_max":1215.375,"ha":1389,"o":"m 1215 1042 l 868 1042 l 868 1216 l 520 1216 l 520 1042 l 868 1042 l 868 868 l 520 868 l 520 1042 l 173 1042 l 173 0 l 1215 0 l 1215 174 l 520 174 l 520 347 l 868 347 l 868 521 l 520 521 l 520 694 l 1215 694 l 1215 1042 "},")":{"x_min":347.25,"x_max":1041.75,"ha":1389,"o":"m 868 868 l 868 1042 l 694 1042 l 694 1216 l 347 1216 l 347 1042 l 520 1042 l 520 868 l 694 868 l 694 347 l 520 347 l 520 174 l 347 174 l 347 0 l 694 0 l 694 174 l 868 174 l 868 347 l 1041 347 l 1041 868 l 868 868 "},"Å":{"x_min":173.375,"x_max":1215.625,"ha":1389,"o":"m 347 694 l 173 694 l 173 0 l 521 0 l 521 347 l 868 347 l 868 0 l 1215 0 l 1215 694 l 1042 694 l 1042 1042 l 868 1042 l 868 1216 l 521 1216 l 521 1042 l 868 1042 l 868 868 l 521 868 l 521 1042 l 347 1042 l 347 694 m 521 521 l 521 694 l 868 694 l 868 521 l 521 521 "},"ø":{"x_min":0,"x_max":1216,"ha":1389,"o":"m 0 694 l 0 174 l 174 174 l 174 0 l 1042 0 l 1042 174 l 1216 174 l 1216 694 l 1042 694 l 1042 868 l 174 868 l 174 694 l 0 694 m 347 694 l 695 694 l 695 521 l 868 521 l 868 174 l 521 174 l 521 347 l 347 347 l 347 694 m 521 521 l 521 347 l 695 347 l 695 521 l 521 521 m 1042 1042 l 1042 868 l 1216 868 l 1216 1042 l 1042 1042 m 0 0 l 0 -174 l 174 -174 l 174 0 l 0 0 "},"â":{"x_min":173.625,"x_max":1215.375,"ha":1389,"o":"m 1215 1042 l 868 1042 l 868 1216 l 520 1216 l 520 1042 l 868 1042 l 868 868 l 520 868 l 520 1042 l 173 1042 l 173 868 l 347 868 l 347 694 l 868 694 l 868 521 l 347 521 l 347 347 l 173 347 l 173 174 l 347 174 l 347 0 l 1215 0 l 1215 694 l 1041 694 l 1041 868 l 1215 868 l 1215 1042 m 520 347 l 868 347 l 868 174 l 520 173 l 520 347 "},"}":{"x_min":173.625,"x_max":1215.375,"ha":1389,"o":"m 868 174 l 868 521 l 1215 521 l 1215 695 l 868 695 l 868 1042 l 694 1042 l 694 1216 l 173 1216 l 173 1042 l 520 1042 l 520 695 l 694 695 l 694 521 l 520 521 l 520 174 l 173 174 l 173 0 l 694 0 l 694 174 l 868 174 "},"‰":{"x_min":0,"x_max":1735,"ha":1910,"o":"m 347 521 l 347 695 l 174 695 l 174 868 l 0 868 l 0 521 l 347 521 l 347 347 l 174 347 l 174 175 l 0 175 l 0 0 l 347 0 l 347 174 l 521 174 l 521 347 l 694 347 l 694 521 l 868 521 l 868 347 l 1042 347 l 1042 174 l 1216 174 l 1216 521 l 868 521 l 868 695 l 1042 695 l 1042 868 l 1216 868 l 1216 1042 l 868 1042 l 868 868 l 694 868 l 694 695 l 521 695 l 521 1042 l 174 1042 l 174 868 l 347 868 l 347 695 l 521 695 l 521 521 l 347 521 m 694 347 l 694 0 l 1042 0 l 1042 174 l 868 174 l 868 347 l 694 347 m 1388 521 l 1388 347 l 1561 347 l 1561 174 l 1735 174 l 1735 521 l 1388 521 l 1388 521 m 1214 347 l 1214 0 l 1561 0 l 1561 174 l 1388 174 l 1388 347 l 1214 347 "},"Ä":{"x_min":173.625,"x_max":1215.375,"ha":1389,"o":"m 1215 0 l 1215 694 l 1041 694 l 1041 868 l 347 868 l 347 694 l 173 694 l 173 0 l 520 0 l 520 347 l 868 347 l 868 0 l 1215 0 m 1215 1216 l 868 1216 l 868 1042 l 1215 1042 l 1215 1216 m 520 1216 l 173 1216 l 173 1042 l 520 1042 l 520 1216 m 520 521 l 520 694 l 868 694 l 868 521 l 520 521 "},"¸":{"x_min":347.25,"x_max":868.125,"ha":1389,"o":"m 520 0 l 347 0 l 347 -172 l 694 -172 l 694 0 l 868 0 l 868 174 l 520 174 l 520 0 "},"a":{"x_min":173.625,"x_max":1215.375,"ha":1389,"o":"m 173 174 l 347 174 l 347 0 l 1215 0 l 1215 694 l 1041 694 l 1041 868 l 347 868 l 347 694 l 868 694 l 868 521 l 347 521 l 347 347 l 173 347 l 173 174 m 520 347 l 868 347 l 868 174 l 520 173 l 520 347 "},"=":{"x_min":173.625,"x_max":1215.375,"ha":1389,"o":"m 173 868 l 173 694 l 1215 694 l 1215 868 l 173 868 m 173 521 l 173 347 l 1215 347 l 1215 521 l 173 521 "},"N":{"x_min":0,"x_max":1215.375,"ha":1389,"o":"m 694 520 l 694 347 l 868 347 l 868 0 l 1215 0 l 1215 1215 l 868 1215 l 868 694 l 694 694 l 694 867 l 520 867 l 520 1041 l 347 1041 l 347 1215 l 0 1215 l 0 0 l 347 0 l 347 694 l 520 694 l 520 520 l 694 520 "},"ú":{"x_min":173.625,"x_max":1215.375,"ha":1389,"o":"m 1215 0 l 1215 694 l 868 694 l 868 174 l 520 174 l 520 694 l 173 694 l 173 174 l 347 174 l 347 0 l 1215 0 m 694 1042 l 520 1042 l 520 868 l 868 868 l 868 1042 l 1041 1042 l 1041 1216 l 694 1216 l 694 1042 "},"2":{"x_min":173.625,"x_max":1215.375,"ha":1389,"o":"m 347 174 l 173 174 l 173 0 l 1215 0 l 1215 174 l 694 174 l 694 347 l 868 347 l 868 521 l 1041 521 l 1041 694 l 1215 694 l 1215 1042 l 1041 1042 l 1041 1216 l 347 1216 l 347 1042 l 173 1042 l 173 868 l 520 868 l 520 1042 l 868 1042 l 868 694 l 694 694 l 694 521 l 520 521 l 520 347 l 347 347 l 347 174 "},"ü":{"x_min":173.625,"x_max":1215.375,"ha":1389,"o":"m 1215 0 l 1215 694 l 868 694 l 868 174 l 520 174 l 520 694 l 173 694 l 173 174 l 347 174 l 347 0 l 1215 0 m 1215 1042 l 868 1042 l 868 868 l 1215 868 l 1215 1042 m 520 1042 l 173 1042 l 173 868 l 520 868 l 520 1042 "},"¯":{"x_min":173.625,"x_max":1215.375,"ha":1389,"o":"m 173 1042 l 1215 1042 l 1215 1216 l 173 1216 l 173 1042 "},"Z":{"x_min":0,"x_max":1215.375,"ha":1389,"o":"m 1041 868 l 1041 1042 l 1215 1042 l 1215 1216 l 0 1216 l 0 1042 l 694 1042 l 694 868 l 520 868 l 520 694 l 347 694 l 347 521 l 173 521 l 173 347 l 0 347 l 0 0 l 1215 0 l 1215 174 l 347 174 l 347 347 l 520 347 l 520 521 l 694 521 l 694 694 l 868 694 l 868 868 l 1041 868 "},"u":{"x_min":173.625,"x_max":1215.375,"ha":1389,"o":"m 1215 0 l 1215 868 l 868 868 l 868 174 l 520 174 l 520 868 l 173 868 l 173 174 l 347 174 l 347 0 l 1215 0 "},"Ó":{"x_min":173.625,"x_max":1215.375,"ha":1389,"o":"m 868 868 l 868 1042 l 1041 1042 l 1041 1216 l 694 1216 l 694 1042 l 520 1042 l 520 868 l 347 868 l 347 694 l 173 694 l 173 174 l 347 174 l 347 0 l 1041 0 l 1041 174 l 1215 174 l 1215 694 l 1041 694 l 1041 868 l 868 868 m 520 694 l 868 694 l 868 174 l 520 174 l 520 694 "},"k":{"x_min":173.625,"x_max":1215.375,"ha":1389,"o":"m 868 694 l 694 694 l 694 521 l 520 521 l 520 1215 l 173 1215 l 173 0 l 520 0 l 520 347 l 694 347 l 694 174 l 868 174 l 868 0 l 1215 0 l 1215 174 l 1041 174 l 1041 347 l 868 347 l 868 521 l 1041 521 l 1041 694 l 1215 694 l 1215 868 l 868 868 l 868 694 "},"Ù":{"x_min":173.625,"x_max":1215.375,"ha":1389,"o":"m 868 1042 l 694 1042 l 694 1216 l 347 1216 l 347 1042 l 520 1042 l 520 868 l 868 868 l 868 174 l 520 174 l 520 868 l 173 868 l 173 174 l 347 174 l 347 0 l 1041 0 l 1041 174 l 1215 174 l 1215 868 l 868 868 l 868 1042 "},"Ÿ":{"x_min":0,"x_max":1389,"ha":1389,"o":"m 347 868 l 0 868 l 0 694 l 173 694 l 173 520 l 347 520 l 347 347 l 520 347 l 520 0 l 868 0 l 868 347 l 1041 347 l 1041 520 l 1215 520 l 1215 694 l 1389 694 l 1389 868 l 1041 868 l 1041 694 l 868 694 l 868 520 l 520 520 l 520 694 l 347 694 l 347 868 m 520 1042 l 520 1216 l 173 1216 l 173 1042 l 520 1042 m 1215 1042 l 1215 1216 l 868 1216 l 868 1042 l 1215 1042 "},"¢":{"x_min":173.625,"x_max":1215.375,"ha":1389,"o":"m 694 174 l 1041 174 l 1041 347 l 1215 347 l 1215 521 l 1041 521 l 1041 695 l 1215 695 l 1215 868 l 1041 868 l 1041 1042 l 694 1042 l 694 868 l 347 868 l 347 695 l 173 695 l 173 521 l 347 521 l 347 347 l 694 347 l 694 174 m 520 695 l 694 694 l 694 521 l 520 521 l 520 695 "},"ß":{"x_min":173.625,"x_max":1215.375,"ha":1389,"o":"m 347 1042 l 173 1042 l 173 -174 l 520 -174 l 520 1042 l 868 1042 l 868 695 l 694 695 l 694 521 l 868 521 l 868 174 l 694 174 l 694 0 l 1041 0 l 1041 174 l 1215 174 l 1215 521 l 1041 521 l 1041 695 l 1215 695 l 1215 1042 l 1041 1042 l 1041 1216 l 347 1216 l 347 1042 "},"é":{"x_min":173.625,"x_max":1215.375,"ha":1389,"o":"m 868 868 l 868 1042 l 1041 1042 l 1041 1216 l 694 1216 l 694 1042 l 520 1042 l 520 868 l 347 868 l 347 694 l 173 694 l 173 174 l 347 174 l 347 0 l 1041 0 l 1041 174 l 520 174 l 520 347 l 1215 347 l 1215 694 l 1041 694 l 1041 868 l 868 868 m 520 694 l 868 694 l 868 521 l 520 521 l 520 694 "},"s":{"x_min":173.625,"x_max":1215.375,"ha":1389,"o":"m 173 173 l 173 0 l 1041 0 l 1041 173 l 1215 173 l 1215 347 l 1041 347 l 1041 521 l 520 521 l 520 695 l 1041 695 l 1041 869 l 347 869 l 347 695 l 173 695 l 173 521 l 347 521 l 347 347 l 868 347 l 868 173 l 173 173 "},"B":{"x_min":173.625,"x_max":1215.375,"ha":1389,"o":"m 173 1216 l 173 0 l 1041 0 l 1041 174 l 1215 174 l 1215 521 l 1041 521 l 1041 695 l 1215 695 l 1215 1042 l 1041 1042 l 1041 1216 l 173 1216 m 520 1042 l 868 1042 l 868 695 l 520 695 l 520 1042 m 520 521 l 868 521 l 868 174 l 520 174 l 520 521 "},"…":{"x_min":907.015625,"x_max":1380.671875,"ha":0,"o":"m 913 321 l 1373 321 q 1380 327 1380 323 q 1377 332 1380 329 l 1168 542 l 913 542 q 909 539 912 542 q 907 530 907 537 l 907 333 q 913 321 907 323 "},"?":{"x_min":173.625,"x_max":1215.375,"ha":1389,"o":"m 694 521 l 520 521 l 520 347 l 868 347 l 868 521 l 1041 521 l 1041 694 l 1215 694 l 1215 1042 l 1041 1042 l 1041 1216 l 347 1216 l 347 1042 l 173 1042 l 173 868 l 520 868 l 520 1042 l 868 1042 l 868 694 l 694 694 l 694 521 m 520 0 l 868 0 l 868 174 l 520 174 l 520 0 "},"H":{"x_min":173.625,"x_max":1215.375,"ha":1389,"o":"m 173 1215 l 173 0 l 520 0 l 520 521 l 868 521 l 868 0 l 1215 0 l 1215 1215 l 868 1215 l 868 695 l 520 695 l 520 1215 l 173 1215 "},"î":{"x_min":173.625,"x_max":1215.375,"ha":1389,"o":"m 694 0 l 1041 0 l 1041 174 l 868 174 l 868 694 l 520 694 l 520 174 l 694 174 l 694 0 m 520 868 l 520 1042 l 173 1042 l 173 868 l 520 868 m 868 1042 l 868 868 l 1215 868 l 1215 1042 l 868 1042 m 868 1042 l 868 1216 l 520 1216 l 520 1042 l 868 1042 "},"c":{"x_min":173.625,"x_max":1041.75,"ha":1389,"o":"m 347 694 l 173 694 l 173 174 l 347 174 l 347 0 l 1041 0 l 1041 174 l 520 174 l 520 694 l 1041 694 l 1041 868 l 347 868 l 347 694 "},"¶":{"x_min":173.125,"x_max":1216,"ha":1389,"o":"m 346 1216 l 346 1042 l 173 1042 l 173 694 l 346 694 l 346 521 l 694 521 l 694 0 l 868 0 l 868 1042 l 1042 1042 l 1042 0 l 1216 0 l 1216 1216 l 346 1216 "},"¥":{"x_min":0,"x_max":1389,"ha":1389,"o":"m 347 521 l 347 347 l 520 347 l 520 0 l 868 0 l 868 347 l 1041 347 l 1041 521 l 868 521 l 868 694 l 1041 694 l 1041 868 l 1215 868 l 1215 1042 l 1389 1042 l 1389 1216 l 1041 1216 l 1041 1042 l 868 1042 l 868 868 l 520 868 l 520 1042 l 347 1042 l 347 1216 l 0 1216 l 0 1042 l 173 1042 l 173 868 l 347 868 l 347 694 l 520 694 l 520 521 l 347 521 "},"(":{"x_min":347.25,"x_max":1041.75,"ha":1389,"o":"m 520 868 l 347 868 l 347 347 l 520 347 l 520 174 l 694 174 l 694 0 l 1041 0 l 1041 174 l 868 174 l 868 347 l 694 347 l 694 868 l 868 868 l 868 1042 l 1041 1042 l 1041 1216 l 694 1216 l 694 1042 l 520 1042 l 520 868 "},"U":{"x_min":173.625,"x_max":1215.375,"ha":1389,"o":"m 1215 1215 l 868 1215 l 868 174 l 520 174 l 520 1215 l 173 1215 l 173 174 l 347 174 l 347 0 l 1041 0 l 1041 174 l 1215 174 l 1215 1215 "},"Ñ":{"x_min":-0.375,"x_max":1389,"ha":1389,"o":"m 694 347 l 694 173 l 867 173 l 867 0 l 1215 0 l 1215 1042 l 694 1042 l 694 1216 l 173 1216 l 173 1042 l 0 1042 l 0 0 l 346 0 l 346 521 l 520 521 l 520 347 l 694 347 m 694 868 l 868 868 l 868 520 l 694 520 l 694 694 l 520 694 l 520 868 l 347 868 l 347 1042 l 694 1042 l 694 868 m 1389 1216 l 1215 1216 l 1215 1042 l 1389 1042 l 1389 1216 "},"F":{"x_min":173.625,"x_max":1215.375,"ha":1389,"o":"m 868 695 l 520 695 l 520 1042 l 1215 1042 l 1215 1216 l 173 1216 l 173 0 l 520 0 l 520 521 l 868 521 l 868 695 "},"­":{"x_min":173.625,"x_max":1215.375,"ha":1389,"o":"m 173 521 l 1215 521 l 1215 695 l 173 695 l 173 521 "},":":{"x_min":520.875,"x_max":868.125,"ha":1389,"o":"m 520 1042 l 520 694 l 868 694 l 868 1042 l 520 1042 m 868 0 l 868 347 l 520 347 l 520 0 l 868 0 "},"Û":{"x_min":173.375,"x_max":1215.625,"ha":1389,"o":"m 1042 1042 l 868 1042 l 868 1216 l 521 1216 l 521 1042 l 868 1042 l 868 174 l 521 174 l 521 1042 l 347 1042 l 347 868 l 173 868 l 173 174 l 347 174 l 347 0 l 1042 0 l 1042 174 l 1215 174 l 1215 868 l 1042 868 l 1042 1042 "},"*":{"x_min":0,"x_max":1389,"ha":1389,"o":"m 0 695 l 0 521 l 347 521 l 347 347 l 173 347 l 173 173 l 520 173 l 520 347 l 868 347 l 868 173 l 1215 173 l 1215 347 l 1041 347 l 1041 521 l 1389 521 l 1389 695 l 1041 695 l 1041 868 l 1215 868 l 1215 1042 l 868 1042 l 868 868 l 520 868 l 520 1042 l 173 1042 l 173 868 l 347 868 l 347 695 l 0 695 "},"†":{"x_min":123.625,"x_max":1440.390625,"ha":1564,"o":"m 773 -3 q 882 4 826 -3 q 993 28 938 12 q 1098 69 1047 44 q 1190 130 1148 94 q 1374 367 1308 228 q 1440 658 1440 505 q 1418 832 1440 749 q 1352 996 1397 915 q 1325 1045 1341 1024 q 1311 1065 1309 1066 l 1279 1102 q 1218 1162 1251 1134 q 1148 1213 1186 1191 l 1029 1280 l 984 1297 q 934 1310 961 1303 q 883 1322 908 1317 q 834 1324 852 1323 q 807 1326 816 1326 q 793 1327 797 1327 q 786 1327 788 1327 l 748 1326 q 683 1320 715 1324 q 618 1306 651 1316 q 474 1248 547 1287 q 338 1155 401 1209 q 227 1035 275 1101 q 158 895 179 969 q 151 869 155 887 q 142 831 147 851 q 133 794 137 812 q 127 770 129 776 q 124 696 125 733 q 123 630 123 660 l 123 560 q 131 513 127 533 q 136 494 136 494 q 152 444 143 467 q 161 420 161 421 q 167 404 161 417 q 177 384 173 391 q 179 376 177 381 q 183 369 181 370 q 190 356 184 367 q 204 332 197 345 q 212 317 212 319 q 222 298 215 308 q 233 280 229 288 q 309 199 279 230 q 358 151 340 169 q 384 128 376 134 q 394 121 393 121 q 420 103 405 112 q 450 87 436 94 q 477 74 465 80 q 493 66 488 69 q 504 58 500 60 q 511 53 508 56 q 567 30 534 39 q 632 14 600 21 l 694 0 l 773 -3 m 263 255 l 231 293 q 225 306 227 301 q 223 318 223 311 l 231 318 q 240 315 234 316 q 248 312 245 313 l 340 265 l 329 447 q 330 479 330 462 q 334 509 330 497 l 541 420 q 543 421 543 420 q 544 422 544 422 q 547 426 545 422 q 550 431 548 430 q 595 570 579 516 q 622 655 612 625 q 638 697 632 686 q 651 708 644 708 l 654 708 l 912 613 l 1002 895 l 1005 897 q 1015 901 1007 901 l 1023 901 l 1222 818 q 1199 667 1220 743 q 1152 523 1177 591 l 919 609 q 909 604 909 607 q 844 447 868 502 q 807 367 820 393 q 789 336 794 341 q 782 331 784 331 l 550 416 q 531 360 540 391 q 516 297 523 329 q 504 238 509 266 q 498 188 500 209 q 458 209 480 197 q 413 231 436 220 q 372 252 391 243 q 341 265 352 261 l 347 238 l 379 137 l 263 255 m 408 805 q 434 872 423 845 q 455 922 444 900 q 479 968 466 944 q 513 1026 493 991 q 528 1051 522 1040 q 550 1062 534 1062 q 593 1056 569 1062 q 642 1041 616 1050 q 693 1023 668 1033 q 743 1005 719 1013 q 752 1000 745 1002 q 758 991 758 997 l 755 982 q 732 925 747 962 q 700 847 716 887 q 668 772 683 807 q 648 723 654 737 q 646 717 648 720 q 644 713 644 713 l 641 712 q 639 713 640 712 q 638 713 638 713 l 415 797 q 408 805 408 798 m 768 1005 l 769 1011 q 784 1043 769 1016 q 819 1102 800 1070 q 856 1162 838 1134 q 877 1197 873 1190 l 880 1197 l 1052 1137 l 1052 1255 q 1100 1236 1073 1255 q 1148 1191 1126 1218 q 1186 1136 1170 1165 q 1201 1088 1201 1108 q 1195 1077 1201 1080 q 1165 1091 1183 1083 q 1128 1108 1147 1100 q 1090 1124 1109 1116 q 1054 1134 1070 1132 q 1041 1081 1047 1112 q 1030 1018 1036 1050 q 1019 960 1025 987 q 1008 916 1013 933 q 1002 911 1004 909 l 784 988 q 772 995 777 991 q 768 1005 768 998 m 1062 234 l 1058 236 q 1034 243 1047 238 q 1019 255 1022 248 q 1091 395 1065 343 q 1129 476 1116 448 q 1147 512 1143 504 q 1154 520 1151 520 l 1301 463 q 1311 457 1307 461 q 1315 447 1315 454 q 1307 425 1315 444 q 1286 379 1298 406 q 1257 322 1273 352 q 1225 265 1241 291 q 1193 222 1208 240 q 1169 205 1179 205 l 1062 234 m 190 605 q 203 736 190 672 q 240 862 216 801 l 388 807 q 397 802 395 804 q 400 793 400 801 l 398 786 q 359 648 375 723 q 331 511 343 573 q 297 527 319 516 q 252 547 275 537 q 213 566 230 558 q 195 577 197 575 l 190 583 l 190 605 m 794 322 l 993 255 q 998 252 994 254 q 1002 250 1002 250 l 1002 247 q 986 209 1002 231 q 947 165 969 187 q 904 125 926 144 q 873 98 883 106 q 854 81 861 87 q 834 76 847 76 q 829 77 832 76 q 826 77 826 77 q 752 95 793 84 q 679 122 712 106 l 794 322 m 388 1109 l 388 1113 q 397 1123 388 1115 q 417 1143 405 1132 q 441 1167 429 1155 q 461 1187 452 1179 q 526 1240 490 1213 q 604 1266 562 1266 q 625 1265 609 1266 q 658 1261 641 1263 q 688 1255 675 1258 q 701 1250 701 1252 l 701 1244 q 623 1167 663 1211 q 555 1088 583 1123 q 544 1075 547 1079 q 534 1072 541 1072 l 388 1109 m 1237 818 l 1232 822 l 1232 848 q 1227 961 1232 901 q 1215 1062 1222 1020 l 1222 1062 l 1305 1015 q 1333 973 1320 1007 q 1354 898 1345 938 q 1368 820 1364 858 q 1373 763 1373 782 q 1373 758 1373 762 q 1369 754 1372 754 l 1237 818 m 169 897 q 186 952 169 919 q 226 1018 202 984 q 274 1080 250 1051 q 315 1125 298 1109 q 345 1116 334 1119 q 363 1112 356 1113 q 372 1110 369 1111 q 380 1108 376 1109 q 377 1102 381 1107 q 373 1098 373 1098 q 297 986 329 1045 q 238 863 265 926 l 169 890 l 169 897 m 1330 466 q 1359 600 1341 533 q 1377 737 1377 666 l 1380 738 q 1410 726 1394 738 q 1436 702 1426 713 l 1436 598 q 1431 558 1436 586 q 1419 502 1426 530 q 1405 453 1412 475 q 1394 431 1398 431 l 1332 458 q 1330 461 1330 458 q 1330 466 1330 463 m 497 68 q 492 95 493 83 q 491 122 491 106 q 493 154 491 138 q 498 187 495 169 q 544 172 515 181 q 602 152 573 162 q 654 132 632 141 q 677 119 676 123 l 677 118 q 666 101 677 115 q 641 72 655 87 q 609 45 626 56 q 583 33 593 33 l 512 59 l 497 68 m 722 1255 l 727 1259 q 793 1295 759 1278 q 865 1312 827 1312 q 900 1307 884 1312 q 936 1296 916 1303 l 941 1293 q 932 1275 941 1289 q 909 1246 922 1261 q 885 1218 897 1230 q 870 1206 873 1206 q 866 1207 869 1206 q 862 1207 862 1207 q 784 1230 812 1221 q 741 1242 755 1238 q 724 1248 727 1246 q 720 1250 720 1250 l 722 1255 m 987 51 q 1009 65 995 56 q 1038 85 1023 75 q 1068 106 1054 95 q 1091 125 1082 116 q 1111 143 1100 131 q 1136 165 1123 154 q 1160 188 1148 177 q 1180 202 1172 198 q 1209 196 1187 201 q 1243 187 1230 191 q 1192 135 1222 161 q 1127 89 1162 109 q 1057 56 1093 69 q 987 44 1020 44 l 987 51 m 181 384 q 179 392 181 386 q 173 406 176 398 q 168 420 170 413 q 165 426 165 426 q 147 477 152 459 q 140 500 143 494 l 129 559 l 127 577 l 127 613 q 133 611 130 612 q 138 609 136 609 l 180 583 q 188 522 184 554 q 195 458 191 490 q 205 400 200 427 q 222 337 211 373 l 222 336 q 221 327 222 331 q 215 322 220 322 q 193 363 202 347 q 181 384 184 380 m 836 68 l 852 68 q 872 63 858 66 q 902 56 886 59 q 931 48 918 52 q 951 41 944 44 q 759 1 858 1 l 702 1 q 772 33 737 16 q 836 68 808 50 m 654 1307 l 665 1307 q 615 1285 637 1295 q 565 1275 593 1275 l 544 1275 q 596 1298 566 1290 q 654 1307 626 1307 m 1345 1001 q 1342 999 1343 1000 q 1339 998 1341 998 q 1325 1008 1333 998 q 1308 1032 1316 1018 q 1293 1060 1300 1045 q 1286 1086 1287 1075 q 1305 1063 1295 1076 q 1323 1037 1315 1050 q 1336 1015 1330 1025 q 1345 1001 1341 1005 m 1052 1263 l 1051 1258 l 947 1295 q 947 1296 947 1295 q 957 1301 948 1297 l 1052 1263 "},"V":{"x_min":173.625,"x_max":1215.375,"ha":1389,"o":"m 173 1215 l 173 520 l 347 520 l 347 173 l 520 173 l 520 0 l 868 0 l 868 173 l 1041 173 l 1041 520 l 1215 520 l 1215 1215 l 868 1215 l 868 520 l 520 520 l 520 1215 l 173 1215 "},"å":{"x_min":173.375,"x_max":1215.625,"ha":1389,"o":"m 521 868 l 521 1042 l 347 1042 l 347 694 l 868 694 l 868 521 l 347 521 l 347 347 l 173 347 l 173 174 l 347 174 l 347 0 l 1215 0 l 1215 694 l 1042 694 l 1042 1042 l 868 1042 l 868 1216 l 521 1216 l 521 1042 l 868 1042 l 868 868 l 521 868 m 521 347 l 868 347 l 868 174 l 521 173 l 521 347 "},"0":{"x_min":173.625,"x_max":1215.375,"ha":1389,"o":"m 1041 1042 l 1041 1216 l 347 1216 l 347 1042 l 173 1042 l 173 174 l 347 174 l 347 0 l 1041 0 l 1041 174 l 1215 174 l 1215 1042 l 1041 1042 m 520 1042 l 868 1042 l 868 868 l 694 868 l 694 694 l 520 694 l 520 1042 m 868 174 l 520 174 l 520 347 l 694 347 l 694 521 l 868 521 l 868 174 "},"¾":{"x_min":-0.25,"x_max":1389,"ha":1389,"o":"m 347 521 l 0 521 l 0 347 l 347 347 l 347 174 l 173 174 l 173 0 l 521 0 l 521 174 l 694 174 l 694 347 l 868 347 l 868 521 l 1041 521 l 1041 694 l 1215 694 l 1215 868 l 1389 868 l 1389 1042 l 1041 1042 l 1041 868 l 868 868 l 868 694 l 694 694 l 694 521 l 521 521 l 521 1042 l 347 1042 l 347 1216 l 0 1216 l 0 1042 l 347 1042 l 347 868 l 173 868 l 173 694 l 347 694 l 347 521 m 1389 -174 l 1389 521 l 1215 521 l 1215 347 l 1041 347 l 1041 174 l 867 174 l 867 0 l 1215 0 l 1215 -174 l 1389 -174 m 347 521 l 521 521 l 521 347 l 347 347 l 347 521 "},"@":{"x_min":0.125,"x_max":1215.5,"ha":1389,"o":"m 0 1042 l 0 174 l 173 174 l 173 0 l 868 0 l 868 174 l 347 174 l 347 1042 l 868 1042 l 868 868 l 521 868 l 521 347 l 1215 347 l 1215 1042 l 1041 1042 l 1041 1216 l 173 1216 l 173 1042 l 0 1042 m 695 694 l 868 694 l 868 521 l 695 521 l 695 694 "},"ö":{"x_min":173.625,"x_max":1215.375,"ha":1389,"o":"m 173 521 l 173 174 l 347 174 l 347 0 l 1041 0 l 1041 174 l 1215 174 l 1215 521 l 1041 521 l 1041 695 l 347 695 l 347 521 l 173 521 m 520 521 l 868 521 l 868 174 l 520 174 l 520 521 m 520 868 l 520 1042 l 173 1042 l 173 868 l 520 868 m 1215 868 l 1215 1042 l 868 1042 l 868 868 l 1215 868 "},"i":{"x_min":520.875,"x_max":1041.75,"ha":1389,"o":"m 694 0 l 1041 0 l 1041 174 l 868 174 l 868 868 l 520 868 l 520 174 l 694 174 l 694 0 m 868 1042 l 868 1216 l 520 1216 l 520 1042 l 868 1042 "},"Õ":{"x_min":0,"x_max":1389,"ha":1389,"o":"m 174 694 l 174 174 l 347 174 l 347 0 l 1041 0 l 1041 174 l 1215 174 l 1215 694 l 1041 694 l 1041 868 l 1215 868 l 1215 1042 l 694 1042 l 694 1216 l 174 1216 l 174 1042 l 694 1042 l 694 868 l 347 868 l 347 694 l 174 694 m 520 694 l 868 694 l 868 174 l 520 174 l 520 694 m 174 1042 l 0 1042 l 0 868 l 174 868 l 174 1042 m 1389 1216 l 1215 1216 l 1215 1042 l 1389 1042 l 1389 1216 "},"þ":{"x_min":173.625,"x_max":1215.375,"ha":1389,"o":"m 173 1042 l 173 -174 l 520 -174 l 520 173 l 1041 173 l 1041 347 l 1215 347 l 1215 694 l 1041 694 l 1041 868 l 520 868 l 520 1042 l 173 1042 m 520 694 l 868 694 l 868 347 l 520 347 l 520 694 "},"]":{"x_min":347.25,"x_max":1041.75,"ha":1389,"o":"m 347 1216 l 347 1042 l 694 1042 l 694 174 l 347 174 l 347 0 l 1041 0 l 1041 1216 l 347 1216 "},"m":{"x_min":0.125,"x_max":1215.875,"ha":1389,"o":"m 0 0 l 347 0 l 347 520 l 521 520 l 521 347 l 695 347 l 695 520 l 868 520 l 868 0 l 1215 0 l 1215 694 l 1042 694 l 1042 868 l 695 868 l 695 694 l 521 694 l 521 868 l 0 868 l 0 0 "},"8":{"x_min":173.625,"x_max":1215.375,"ha":1389,"o":"m 1041 1042 l 1041 1216 l 347 1216 l 347 1042 l 173 1042 l 173 695 l 347 695 l 347 521 l 173 521 l 173 174 l 347 174 l 347 0 l 1041 0 l 1041 174 l 1215 174 l 1215 521 l 1041 521 l 1041 695 l 1215 695 l 1215 1042 l 1041 1042 m 520 1042 l 868 1042 l 868 695 l 520 695 l 520 1042 m 868 174 l 520 174 l 520 521 l 868 521 l 868 174 "},"R":{"x_min":173.625,"x_max":1215.375,"ha":1389,"o":"m 520 0 l 520 521 l 694 521 l 694 347 l 868 347 l 868 0 l 1215 0 l 1215 347 l 1041 347 l 1041 695 l 1215 695 l 1215 1042 l 1041 1042 l 1041 1216 l 173 1216 l 173 0 l 520 0 m 520 1042 l 868 1042 l 868 695 l 520 695 l 520 1042 "},"á":{"x_min":173.625,"x_max":1215.375,"ha":1389,"o":"m 1041 1216 l 694 1216 l 694 1042 l 520 1042 l 520 868 l 347 868 l 347 694 l 868 694 l 868 521 l 347 521 l 347 347 l 173 347 l 173 174 l 347 174 l 347 0 l 1215 0 l 1215 694 l 1041 694 l 1041 868 l 868 868 l 868 1042 l 1041 1042 l 1041 1216 m 520 347 l 868 347 l 868 174 l 520 173 l 520 347 "},"×":{"x_min":0,"x_max":1215.375,"ha":1389,"o":"m 520 347 l 520 521 l 694 521 l 694 347 l 868 347 l 868 173 l 1215 173 l 1215 347 l 1041 347 l 1041 521 l 868 521 l 868 695 l 1041 695 l 1041 868 l 1215 868 l 1215 1042 l 868 1042 l 868 868 l 694 868 l 694 695 l 520 695 l 520 868 l 347 868 l 347 1042 l 0 1042 l 0 868 l 173 868 l 173 695 l 347 695 l 347 521 l 173 521 l 173 347 l 0 347 l 0 173 l 347 173 l 347 347 l 520 347 "},"o":{"x_min":173.625,"x_max":1215.375,"ha":1389,"o":"m 173 694 l 173 174 l 347 174 l 347 0 l 1041 0 l 1041 174 l 1215 174 l 1215 694 l 1041 694 l 1041 868 l 347 868 l 347 694 l 173 694 m 520 694 l 868 694 l 868 174 l 520 174 l 520 694 "},"5":{"x_min":173.625,"x_max":1215.375,"ha":1389,"o":"m 1041 868 l 520 868 l 520 1042 l 1215 1042 l 1215 1216 l 173 1216 l 173 694 l 868 694 l 868 173 l 520 173 l 520 347 l 173 347 l 173 173 l 347 173 l 347 0 l 1041 0 l 1041 173 l 1215 173 l 1215 694 l 1041 694 l 1041 868 "},"õ":{"x_min":0,"x_max":1389,"ha":1389,"o":"m 174 521 l 174 174 l 347 174 l 347 0 l 1041 0 l 1041 174 l 1215 174 l 1215 521 l 1041 521 l 1041 695 l 347 695 l 347 521 l 174 521 m 694 868 l 1215 868 l 1215 1042 l 694 1042 l 694 1216 l 174 1216 l 174 1042 l 694 1042 l 694 868 m 520 521 l 868 521 l 868 174 l 520 174 l 520 521 m 174 1042 l 0 1042 l 0 868 l 174 868 l 174 1042 m 1389 1216 l 1215 1216 l 1215 1042 l 1389 1042 l 1389 1216 "},"7":{"x_min":173.625,"x_max":1215.375,"ha":1389,"o":"m 868 1042 l 868 694 l 694 694 l 694 521 l 520 521 l 520 0 l 868 0 l 868 521 l 1041 521 l 1041 694 l 1215 694 l 1215 1216 l 173 1216 l 173 1042 l 868 1042 "},"K":{"x_min":0,"x_max":1215.375,"ha":1389,"o":"m 347 521 l 520 521 l 520 347 l 694 347 l 694 174 l 868 174 l 868 0 l 1215 0 l 1215 174 l 1041 174 l 1041 347 l 868 347 l 868 521 l 694 521 l 694 695 l 868 695 l 868 868 l 1041 868 l 1041 1042 l 1215 1042 l 1215 1216 l 868 1216 l 868 1042 l 694 1042 l 694 868 l 520 868 l 520 695 l 347 695 l 347 1216 l 0 1216 l 0 0 l 347 0 l 347 521 "},",":{"x_min":347.25,"x_max":868.125,"ha":1389,"o":"m 520 0 l 347 0 l 347 -172 l 694 -172 l 694 0 l 868 0 l 868 347 l 520 347 l 520 0 "},"d":{"x_min":173.625,"x_max":1215.375,"ha":1389,"o":"m 173 694 l 173 174 l 347 174 l 347 0 l 1215 0 l 1215 1215 l 868 1215 l 868 868 l 347 868 l 347 694 l 173 694 m 520 694 l 868 694 l 868 174 l 520 174 l 520 694 "},"¨":{"x_min":173.625,"x_max":1215.375,"ha":1389,"o":"m 173 1215 l 173 868 l 520 868 l 520 1215 l 173 1215 m 868 1215 l 868 868 l 1215 868 l 1215 1215 l 868 1215 "},"Ô":{"x_min":173.625,"x_max":1215.375,"ha":1389,"o":"m 1215 868 l 1215 1042 l 868 1042 l 868 1216 l 520 1216 l 520 1042 l 868 1042 l 868 868 l 520 868 l 520 1042 l 173 1042 l 173 868 l 347 868 l 347 694 l 173 694 l 173 174 l 347 174 l 347 0 l 1041 0 l 1041 174 l 1215 174 l 1215 694 l 1041 694 l 1041 868 l 1215 868 m 520 694 l 868 694 l 868 174 l 520 174 l 520 694 "},"E":{"x_min":173.625,"x_max":1215.375,"ha":1389,"o":"m 173 0 l 1215 0 l 1215 174 l 520 174 l 520 521 l 868 521 l 868 695 l 520 695 l 520 1042 l 1215 1042 l 1215 1216 l 173 1216 l 173 0 "},"Y":{"x_min":0,"x_max":1389,"ha":1389,"o":"m 347 1216 l 0 1216 l 0 1042 l 173 1042 l 173 868 l 347 868 l 347 694 l 520 694 l 520 0 l 868 0 l 868 694 l 1041 694 l 1041 868 l 1215 868 l 1215 1042 l 1389 1042 l 1389 1216 l 1041 1216 l 1041 1042 l 868 1042 l 868 868 l 520 868 l 520 1042 l 347 1042 l 347 1216 "},"\"":{"x_min":173.625,"x_max":1041.75,"ha":1389,"o":"m 173 1215 l 173 868 l 520 868 l 520 1215 l 173 1215 m 694 1215 l 694 868 l 1041 868 l 1041 1215 l 694 1215 "},"‹":{"x_min":347.25,"x_max":1041.75,"ha":1389,"o":"m 347 521 l 520 521 l 520 347 l 694 347 l 694 173 l 1041 173 l 1041 347 l 868 347 l 868 521 l 694 521 l 694 695 l 868 695 l 868 868 l 1041 868 l 1041 1042 l 694 1042 l 694 868 l 520 868 l 520 695 l 347 695 l 347 521 "},"ê":{"x_min":173.625,"x_max":1215.375,"ha":1389,"o":"m 868 1042 l 868 868 l 520 868 l 520 1042 l 173 1042 l 173 868 l 347 868 l 347 694 l 173 694 l 173 174 l 347 174 l 347 0 l 1041 0 l 1041 174 l 520 174 l 520 347 l 1215 347 l 1215 694 l 1041 694 l 1041 868 l 1215 868 l 1215 1042 l 868 1042 m 520 694 l 868 694 l 868 521 l 520 521 l 520 694 m 868 1042 l 868 1216 l 520 1216 l 520 1042 l 868 1042 "},"Ï":{"x_min":173.625,"x_max":1215.375,"ha":1389,"o":"m 347 868 l 347 694 l 520 694 l 520 174 l 347 174 l 347 0 l 1041 0 l 1041 174 l 868 174 l 868 694 l 1041 694 l 1041 868 l 347 868 m 1215 1216 l 868 1216 l 868 1042 l 1215 1042 l 1215 1216 m 520 1216 l 173 1216 l 173 1042 l 520 1042 l 520 1216 "},"„":{"x_min":167,"x_max":1380.671875,"ha":1389,"o":"m 896 1112 q 734 1135 816 1135 l 727 1135 q 512 1089 614 1135 q 334 967 411 1044 q 212 788 257 890 q 167 572 167 686 l 167 557 q 212 345 167 445 q 334 167 257 244 q 511 45 411 90 q 723 0 612 0 l 734 0 q 896 23 814 0 l 896 297 q 734 254 823 254 l 727 254 q 611 279 666 254 q 513 346 555 304 q 446 444 471 388 q 421 561 421 500 l 421 575 q 446 692 421 636 q 513 791 471 748 q 611 859 555 833 q 727 885 666 885 l 734 885 q 896 840 822 885 l 896 1112 m 1377 807 q 1380 811 1380 807 q 1373 817 1380 814 l 913 817 q 908 814 911 814 q 907 805 907 814 l 907 608 q 913 596 907 598 l 1168 596 l 1377 807 "},"Â":{"x_min":173.625,"x_max":1215.375,"ha":1389,"o":"m 868 1216 l 520 1216 l 520 1042 l 868 1042 l 868 868 l 520 868 l 520 1042 l 173 1042 l 173 868 l 347 868 l 347 694 l 173 694 l 173 0 l 520 0 l 520 347 l 868 347 l 868 0 l 1215 0 l 1215 694 l 1041 694 l 1041 868 l 1215 868 l 1215 1042 l 868 1042 l 868 1216 m 520 521 l 520 694 l 868 694 l 868 521 l 520 521 "},"Í":{"x_min":347.25,"x_max":1041.75,"ha":1389,"o":"m 1041 1216 l 694 1216 l 694 1042 l 520 1042 l 520 868 l 347 868 l 347 694 l 520 694 l 520 174 l 347 174 l 347 0 l 1041 0 l 1041 174 l 868 174 l 868 694 l 1041 694 l 1041 868 l 868 868 l 868 1042 l 1041 1042 l 1041 1216 "},"´":{"x_min":173.625,"x_max":868.125,"ha":1389,"o":"m 694 1042 l 868 1042 l 868 1216 l 520 1216 l 520 1042 l 347 1042 l 347 868 l 173 868 l 173 694 l 520 694 l 520 868 l 694 868 l 694 1042 "},"ì":{"x_min":347.25,"x_max":1041.75,"ha":1389,"o":"m 694 0 l 1041 0 l 1041 174 l 868 174 l 868 694 l 520 694 l 520 174 l 694 174 l 694 0 m 868 868 l 868 1042 l 694 1042 l 694 1216 l 347 1216 l 347 1042 l 520 1042 l 520 868 l 868 868 "},"±":{"x_min":173.625,"x_max":1215.375,"ha":1389,"o":"m 173 868 l 173 694 l 520 694 l 520 346 l 868 346 l 868 694 l 1215 694 l 1215 868 l 868 868 l 868 1215 l 520 1215 l 520 868 l 173 868 m 173 174 l 173 0 l 1215 0 l 1215 174 l 173 174 "},"Ú":{"x_min":173.625,"x_max":1215.375,"ha":1389,"o":"m 1041 1216 l 694 1216 l 694 1042 l 520 1042 l 520 868 l 868 868 l 868 174 l 520 174 l 520 868 l 173 868 l 173 174 l 347 174 l 347 0 l 1041 0 l 1041 174 l 1215 174 l 1215 868 l 868 868 l 868 1042 l 1041 1042 l 1041 1216 "},"|":{"x_min":520.875,"x_max":868.125,"ha":1389,"o":"m 520 1215 l 520 0 l 868 0 l 868 1215 l 520 1215 "},"§":{"x_min":173.625,"x_max":1215.375,"ha":1389,"o":"m 1041 1216 l 347 1216 l 347 1042 l 173 1042 l 173 868 l 347 868 l 347 694 l 173 694 l 173 521 l 347 521 l 347 347 l 868 347 l 868 174 l 347 174 l 347 0 l 1041 0 l 1041 174 l 1215 173 l 1215 347 l 1041 347 l 1041 521 l 1215 521 l 1215 694 l 1041 694 l 1041 868 l 520 868 l 520 1042 l 1041 1042 l 1041 1216 m 520 694 l 868 694 l 868 521 l 520 521 l 520 694 "},"Ý":{"x_min":-0.125,"x_max":1388.875,"ha":1389,"o":"m 347 868 l 0 868 l 0 694 l 173 694 l 173 520 l 347 520 l 347 347 l 520 347 l 520 0 l 868 0 l 868 347 l 1041 347 l 1041 520 l 1215 520 l 1215 694 l 1388 694 l 1388 868 l 1041 868 l 1041 694 l 868 694 l 868 520 l 520 520 l 520 694 l 347 694 l 347 868 m 1215 1042 l 1215 1216 l 868 1216 l 868 1042 l 1215 1042 m 868 868 l 868 1042 l 694 1042 l 694 868 l 868 868 "},"b":{"x_min":173.625,"x_max":1215.375,"ha":1389,"o":"m 173 0 l 1041 0 l 1041 174 l 1215 174 l 1215 694 l 1041 694 l 1041 868 l 520 868 l 520 1215 l 173 1215 l 173 0 m 520 694 l 868 694 l 868 174 l 520 174 l 520 694 "},"q":{"x_min":173.625,"x_max":1215.375,"ha":1389,"o":"m 173 694 l 173 347 l 347 347 l 347 173 l 868 173 l 868 -174 l 1215 -172 l 1215 868 l 347 868 l 347 694 l 173 694 m 520 694 l 868 694 l 868 347 l 520 347 l 520 694 "},"Ö":{"x_min":0,"x_max":1389,"ha":1389,"o":"m 0 1216 l 0 1042 l 347 1042 l 347 868 l 173 868 l 173 174 l 347 174 l 347 0 l 1041 0 l 1041 174 l 1215 174 l 1215 868 l 1041 868 l 1041 1042 l 347 1042 l 347 1216 l 0 1216 m 520 868 l 868 868 l 868 174 l 520 174 l 520 868 m 1041 1216 l 1041 1042 l 1389 1042 l 1389 1216 l 1041 1216 "},"z":{"x_min":173.625,"x_max":1215.375,"ha":1389,"o":"m 173 868 l 173 694 l 694 694 l 694 520 l 520 520 l 520 347 l 347 347 l 347 174 l 173 174 l 173 0 l 1215 0 l 1215 174 l 694 174 l 694 347 l 868 347 l 868 520 l 1041 520 l 1041 694 l 1215 694 l 1215 868 l 173 868 "},"ã":{"x_min":0,"x_max":1389,"ha":1389,"o":"m 174 174 l 347 174 l 347 0 l 1215 0 l 1215 694 l 1041 694 l 1041 868 l 1215 868 l 1215 1042 l 694 1042 l 694 1216 l 174 1216 l 174 1042 l 694 1042 l 694 868 l 347 868 l 347 694 l 868 694 l 868 521 l 347 521 l 347 347 l 174 347 l 174 174 m 520 347 l 868 347 l 868 174 l 520 173 l 520 347 m 1389 1216 l 1215 1216 l 1215 1042 l 1389 1042 l 1389 1216 m 174 1042 l 0 1042 l 0 868 l 174 868 l 174 1042 "},"æ":{"x_min":0,"x_max":1389,"ha":1389,"o":"m 173 0 l 1389 0 l 1389 173 l 868 173 l 868 347 l 1389 347 l 1389 694 l 1215 694 l 1215 868 l 173 868 l 173 694 l 520 694 l 520 521 l 173 521 l 173 347 l 0 347 l 0 173 l 173 173 l 173 0 m 347 347 l 520 347 l 520 173 l 347 173 l 347 347 m 868 694 l 1041 694 l 1041 521 l 868 521 l 868 694 "},"®":{"x_min":0,"x_max":1389,"ha":1389,"o":"m 174 1042 l 1215 1042 l 1215 0 l 1389 0 l 1389 1042 l 1215 1042 l 1215 1216 l 174 1216 l 174 1042 m 0 1042 l 0 0 l 174 0 l 174 -174 l 1215 -174 l 1215 0 l 174 0 l 174 1042 l 0 1042 m 868 347 l 868 521 l 521 521 l 521 695 l 868 695 l 868 521 l 1042 521 l 1042 695 l 868 694 l 868 868 l 347 868 l 347 173 l 521 173 l 521 347 l 868 347 m 868 347 l 868 173 l 1042 173 l 1042 347 l 868 347 "},"É":{"x_min":173.625,"x_max":1215.375,"ha":1389,"o":"m 1041 1216 l 694 1216 l 694 1042 l 520 1042 l 520 868 l 173 868 l 173 0 l 1215 0 l 1215 174 l 520 174 l 520 347 l 868 347 l 868 521 l 520 521 l 520 694 l 1215 694 l 1215 868 l 868 868 l 868 1042 l 1041 1042 l 1041 1216 "},"~":{"x_min":0,"x_max":1389,"ha":1389,"o":"m 694 868 l 1215 868 l 1215 1042 l 694 1042 l 694 1216 l 174 1216 l 174 1042 l 694 1042 l 694 868 m 1389 1216 l 1215 1216 l 1215 1042 l 1389 1042 l 1389 1216 m 174 1042 l 0 1042 l 0 868 l 174 868 l 174 1042 "},"³":{"x_min":173.625,"x_max":1041.75,"ha":1389,"o":"m 173 521 l 173 347 l 868 347 l 868 521 l 1041 521 l 1041 695 l 868 695 l 868 869 l 1041 869 l 1041 1043 l 868 1042 l 868 1216 l 173 1216 l 173 1042 l 694 1043 l 694 869 l 520 869 l 520 695 l 694 695 l 694 521 l 173 521 "},"¡":{"x_min":520.875,"x_max":868.125,"ha":1389,"o":"m 520 -1 l 868 -1 l 868 693 l 520 693 l 520 -1 m 520 1040 l 868 1040 l 868 1214 l 520 1214 l 520 1040 "},"[":{"x_min":347.25,"x_max":1041.75,"ha":1389,"o":"m 347 1216 l 347 0 l 1041 0 l 1041 174 l 694 174 l 694 1042 l 1041 1042 l 1041 1216 l 347 1216 "},"L":{"x_min":173.625,"x_max":1215.375,"ha":1389,"o":"m 173 1215 l 173 0 l 1215 0 l 1215 174 l 520 174 l 520 1215 l 173 1215 "}," ":{"x_min":0,"x_max":0,"ha":1389},"%":{"x_min":0,"x_max":1216,"ha":1389,"o":"m 347 521 l 347 695 l 174 695 l 174 868 l 0 868 l 0 521 l 347 521 l 347 347 l 174 347 l 174 175 l 0 175 l 0 0 l 347 0 l 347 174 l 521 174 l 521 347 l 694 347 l 694 521 l 868 521 l 868 347 l 1042 347 l 1042 174 l 1216 174 l 1216 521 l 868 521 l 868 695 l 1042 695 l 1042 868 l 1216 868 l 1216 1042 l 868 1042 l 868 868 l 694 868 l 694 695 l 521 695 l 521 1042 l 174 1042 l 174 868 l 347 868 l 347 695 l 521 695 l 521 521 l 347 521 m 694 347 l 694 0 l 1042 0 l 1042 174 l 868 174 l 868 347 l 694 347 "},"P":{"x_min":173.625,"x_max":1215.375,"ha":1389,"o":"m 173 1216 l 173 0 l 520 0 l 520 521 l 1041 521 l 1041 695 l 1215 695 l 1215 1042 l 1041 1042 l 1041 1216 l 173 1216 m 520 1042 l 868 1042 l 868 695 l 520 695 l 520 1042 "},"À":{"x_min":173.625,"x_max":1215.375,"ha":1389,"o":"m 694 1216 l 347 1216 l 347 1042 l 520 1042 l 520 868 l 347 868 l 347 694 l 173 694 l 173 0 l 520 0 l 520 347 l 868 347 l 868 0 l 1215 0 l 1215 694 l 1041 694 l 1041 868 l 868 868 l 868 1042 l 694 1042 l 694 1216 m 520 521 l 520 694 l 868 694 l 868 521 l 520 521 "},"_":{"x_min":0,"x_max":1215.375,"ha":1389,"o":"m 0 -174 l 1215 -174 l 1215 0 l 0 0 l 0 -174 "},"ñ":{"x_min":0,"x_max":1389,"ha":1389,"o":"m 174 0 l 521 0 l 521 521 l 868 521 l 868 0 l 1215 0 l 1215 521 l 1041 521 l 1041 695 l 174 695 l 174 0 m 694 868 l 1215 868 l 1215 1042 l 694 1042 l 694 1216 l 174 1216 l 174 1042 l 694 1042 l 694 868 m 1389 1216 l 1215 1216 l 1215 1042 l 1389 1042 l 1389 1216 m 174 1042 l 0 1042 l 0 868 l 174 868 l 174 1042 "},"+":{"x_min":173.625,"x_max":1215.375,"ha":1389,"o":"m 173 695 l 173 521 l 520 521 l 520 174 l 868 174 l 868 521 l 1215 521 l 1215 695 l 868 695 l 868 1042 l 520 1042 l 520 695 l 173 695 "},"‚":{"x_min":0,"x_max":1389,"ha":1389,"o":"m 0 -174 l 1389 -174 l 1389 1215 l 0 1215 l 0 -174 "},"½":{"x_min":-0.625,"x_max":1216,"ha":1389,"o":"m 347 521 l 347 347 l 173 347 l 173 174 l 0 174 l 0 0 l 347 0 l 347 174 l 520 174 l 520 347 l 1042 347 l 1042 174 l 1216 174 l 1216 521 l 868 521 l 868 694 l 1042 694 l 1042 868 l 1216 868 l 1216 1042 l 868 1042 l 868 868 l 694 868 l 694 694 l 520 694 l 520 521 l 347 521 m 347 521 l 347 1215 l 173 1215 l 173 1042 l 0 1042 l 0 868 l 173 868 l 173 521 l 347 521 m 1216 0 l 1042 0 l 1042 174 l 868 174 l 868 0 l 694 0 l 694 -174 l 1216 -174 l 1216 0 "},"Æ":{"x_min":0,"x_max":1389,"ha":1389,"o":"m 1389 0 l 1389 174 l 1041 174 l 1041 521 l 1389 521 l 1389 695 l 1041 695 l 1041 1042 l 1389 1042 l 1389 1216 l 520 1216 l 520 1042 l 347 1042 l 347 695 l 173 695 l 173 347 l 0 347 l 0 0 l 347 0 l 347 347 l 694 347 l 694 0 l 1389 0 m 520 521 l 520 695 l 694 695 l 694 521 l 520 521 "},"Ë":{"x_min":173.625,"x_max":1215.375,"ha":1389,"o":"m 173 0 l 1215 0 l 1215 174 l 520 174 l 520 347 l 868 347 l 868 521 l 520 521 l 520 694 l 1215 694 l 1215 868 l 173 868 l 173 0 m 1215 1216 l 868 1216 l 868 1042 l 1215 1042 l 1215 1216 m 520 1216 l 173 1216 l 173 1042 l 520 1042 l 520 1216 "},"'":{"x_min":347.25,"x_max":868.125,"ha":1389,"o":"m 520 1215 l 520 868 l 347 868 l 347 694 l 694 694 l 694 868 l 868 868 l 868 1215 l 520 1215 "},"Š":{"x_min":174.125,"x_max":1216.625,"ha":1389,"o":"m 869 868 l 869 1042 l 695 1042 l 695 1216 l 521 1216 l 521 1042 l 695 1042 l 695 868 l 347 868 l 347 695 l 174 695 l 174 521 l 347 521 l 347 347 l 869 347 l 869 174 l 174 174 l 174 0 l 1043 0 l 1043 174 l 1216 173 l 1216 347 l 1043 347 l 1043 521 l 521 521 l 521 695 l 1216 694 l 1216 868 l 869 868 m 1043 1042 l 1043 1216 l 869 1216 l 869 1042 l 1043 1042 "},"ª":{"x_min":347.25,"x_max":1215.375,"ha":1389,"o":"m 347 521 l 520 521 l 520 347 l 1215 347 l 1215 1042 l 1041 1042 l 1041 1216 l 520 1216 l 520 1042 l 868 1042 l 868 868 l 520 868 l 520 695 l 347 695 l 347 521 m 694 695 l 868 694 l 868 521 l 694 521 l 694 695 "},"ð":{"x_min":0,"x_max":1215.375,"ha":1389,"o":"m 1041 868 l 1041 1042 l 520 1042 l 520 1215 l 173 1215 l 173 1042 l 0 1042 l 0 868 l 520 868 l 520 694 l 347 694 l 347 521 l 173 521 l 173 174 l 347 174 l 347 0 l 1041 0 l 1041 174 l 1215 174 l 1215 521 l 1041 521 l 1041 694 l 868 694 l 868 868 l 1041 868 m 520 521 l 868 521 l 868 174 l 520 174 l 520 521 "},"T":{"x_min":173.625,"x_max":1215.375,"ha":1389,"o":"m 173 1216 l 173 1042 l 520 1042 l 520 0 l 868 0 l 868 1042 l 1215 1042 l 1215 1216 l 173 1216 "},"š":{"x_min":174.125,"x_max":1216.625,"ha":1389,"o":"m 869 868 l 869 1042 l 695 1042 l 695 1216 l 521 1216 l 521 1042 l 695 1042 l 695 868 l 347 868 l 347 695 l 174 695 l 174 521 l 347 521 l 347 347 l 869 347 l 869 174 l 174 174 l 174 0 l 1043 0 l 1043 174 l 1216 173 l 1216 347 l 1043 347 l 1043 521 l 521 521 l 521 695 l 1043 694 l 1043 868 l 869 868 m 1043 1042 l 1043 1216 l 869 1216 l 869 1042 l 1043 1042 "},"Þ":{"x_min":0,"x_max":1215.375,"ha":1389,"o":"m 0 1215 l 0 0 l 347 0 l 347 347 l 1041 347 l 1041 521 l 1215 521 l 1215 694 l 1041 694 l 1041 868 l 347 868 l 347 1215 l 0 1215 m 347 694 l 868 694 l 868 521 l 347 521 l 347 694 "},"j":{"x_min":173.625,"x_max":1041.75,"ha":1389,"o":"m 173 -174 l 868 -174 l 868 -2 l 1041 -2 l 1041 867 l 694 867 l 694 -2 l 173 -2 l 173 -174 m 694 1042 l 1041 1042 l 1041 1216 l 694 1216 l 694 1042 "},"1":{"x_min":173.625,"x_max":868.125,"ha":1389,"o":"m 347 868 l 173 868 l 173 694 l 520 694 l 520 0 l 868 0 l 868 1215 l 520 1215 l 520 1041 l 347 1041 l 347 868 "},"›":{"x_min":347.25,"x_max":1041.75,"ha":1389,"o":"m 1041 521 l 1041 695 l 868 695 l 868 868 l 694 868 l 694 1042 l 347 1042 l 347 868 l 520 868 l 520 695 l 694 695 l 694 521 l 520 521 l 520 347 l 347 347 l 347 173 l 694 173 l 694 347 l 868 347 l 868 521 l 1041 521 "},"ä":{"x_min":173.625,"x_max":1215.375,"ha":1389,"o":"m 173 174 l 347 174 l 347 0 l 1215 0 l 1215 694 l 1041 694 l 1041 868 l 347 868 l 347 694 l 868 694 l 868 521 l 347 521 l 347 347 l 173 347 l 173 174 m 1215 1216 l 868 1216 l 868 1042 l 1215 1042 l 1215 1216 m 520 1216 l 173 1216 l 173 1042 l 520 1042 l 520 1216 m 520 347 l 868 347 l 868 174 l 520 173 l 520 347 "},"<":{"x_min":173.625,"x_max":1215.375,"ha":1389,"o":"m 173 694 l 173 521 l 520 521 l 520 347 l 868 347 l 868 173 l 1215 173 l 1215 347 l 868 347 l 868 521 l 520 521 l 520 695 l 173 694 m 868 868 l 520 868 l 520 695 l 868 694 l 868 868 m 868 868 l 1215 868 l 1215 1042 l 868 1042 l 868 868 "},"£":{"x_min":173.625,"x_max":1215.375,"ha":1389,"o":"m 347 174 l 173 174 l 173 0 l 1215 0 l 1215 174 l 694 174 l 694 521 l 868 521 l 868 695 l 694 695 l 694 1042 l 868 1042 l 868 868 l 1215 868 l 1215 1042 l 1041 1042 l 1041 1216 l 520 1216 l 520 1042 l 347 1042 l 347 695 l 173 695 l 173 521 l 347 521 l 347 174 "},"¹":{"x_min":173.625,"x_max":694.5,"ha":1389,"o":"m 694 1215 l 347 1215 l 347 1042 l 173 1042 l 173 868 l 347 868 l 347 347 l 694 347 l 694 1215 "},"t":{"x_min":173.625,"x_max":1041.75,"ha":1389,"o":"m 347 174 l 520 174 l 520 0 l 1041 0 l 1041 174 l 694 174 l 694 694 l 1041 694 l 1041 868 l 694 868 l 694 1215 l 347 1215 l 347 868 l 173 868 l 173 694 l 347 694 l 347 174 "},"¬":{"x_min":347.25,"x_max":1215.375,"ha":1389,"o":"m 347 1042 l 868 1042 l 868 868 l 1215 868 l 1215 1216 l 347 1216 l 347 1042 "},"ù":{"x_min":173.625,"x_max":1215.375,"ha":1389,"o":"m 1215 0 l 1215 694 l 868 694 l 868 174 l 520 174 l 520 694 l 173 694 l 173 174 l 347 174 l 347 0 l 1215 0 m 347 1042 l 520 1042 l 520 868 l 868 868 l 868 1042 l 694 1042 l 694 1216 l 347 1216 l 347 1042 "},"W":{"x_min":0.125,"x_max":1215.875,"ha":1389,"o":"m 1215 1215 l 868 1215 l 868 520 l 695 520 l 695 694 l 521 694 l 521 520 l 347 520 l 347 1215 l 0 1215 l 0 0 l 347 0 l 347 173 l 521 173 l 521 347 l 695 347 l 695 173 l 868 173 l 868 0 l 1215 0 l 1215 1215 "},"ï":{"x_min":173.625,"x_max":1215.375,"ha":1389,"o":"m 694 0 l 1041 0 l 1041 174 l 868 174 l 868 694 l 520 694 l 520 174 l 694 174 l 694 0 m 1215 868 l 1215 1042 l 868 1042 l 868 868 l 1215 868 m 520 868 l 520 1042 l 173 1042 l 173 868 l 520 868 "},">":{"x_min":173.625,"x_max":1215.375,"ha":1389,"o":"m 520 868 l 520 1042 l 173 1042 l 173 868 l 520 868 l 520 694 l 868 695 l 868 521 l 1215 521 l 1215 695 l 868 694 l 868 868 l 520 868 m 173 347 l 173 173 l 520 173 l 520 347 l 173 347 m 520 521 l 520 347 l 868 347 l 868 521 l 520 521 "},"v":{"x_min":173.625,"x_max":1215.375,"ha":1389,"o":"m 868 0 l 868 173 l 1041 173 l 1041 347 l 1215 347 l 1215 868 l 868 868 l 868 347 l 520 347 l 520 868 l 173 868 l 173 347 l 347 347 l 347 173 l 520 173 l 520 0 l 868 0 "},"û":{"x_min":173.625,"x_max":1215.375,"ha":1389,"o":"m 1215 0 l 1215 694 l 868 694 l 868 174 l 520 174 l 520 694 l 173 694 l 173 174 l 347 174 l 347 0 l 1215 0 m 868 1216 l 520 1216 l 520 1042 l 868 1042 l 868 868 l 1215 868 l 1215 1042 l 868 1042 l 868 1216 m 520 1042 l 173 1042 l 173 868 l 520 868 l 520 1042 "},"Ò":{"x_min":173.625,"x_max":1215.375,"ha":1389,"o":"m 868 868 l 868 1042 l 694 1042 l 694 1216 l 347 1216 l 347 1042 l 520 1042 l 520 868 l 347 868 l 347 694 l 173 694 l 173 174 l 347 174 l 347 0 l 1041 0 l 1041 174 l 1215 174 l 1215 694 l 1041 694 l 1041 868 l 868 868 m 520 694 l 868 694 l 868 174 l 520 174 l 520 694 "},"&":{"x_min":-0.125,"x_max":1388.875,"ha":1389,"o":"m 173 0 l 1388 0 l 1388 174 l 1215 174 l 1215 347 l 1041 347 l 1041 521 l 1215 521 l 1215 695 l 868 695 l 868 868 l 1041 868 l 1041 1042 l 868 1042 l 868 1216 l 347 1216 l 347 1042 l 173 1042 l 173 521 l 0 521 l 0 174 l 173 174 l 173 0 m 520 521 l 520 347 l 694 347 l 694 174 l 346 174 l 346 521 l 520 521 m 694 695 l 520 695 l 520 1042 l 694 1042 l 694 695 m 694 695 l 868 695 l 868 521 l 694 521 l 694 695 "},"Ð":{"x_min":0,"x_max":1215.375,"ha":1389,"o":"m 0 695 l 0 521 l 173 521 l 173 0 l 868 0 l 868 174 l 1041 174 l 1041 347 l 1215 347 l 1215 868 l 1041 868 l 1041 1042 l 868 1042 l 868 1216 l 173 1216 l 173 695 l 0 695 m 520 1042 l 694 1042 l 694 868 l 868 868 l 868 347 l 694 347 l 694 174 l 520 174 l 520 521 l 694 521 l 694 695 l 520 695 l 520 1042 "},"I":{"x_min":347.25,"x_max":1041.75,"ha":1389,"o":"m 347 1216 l 347 1042 l 520 1042 l 520 174 l 347 174 l 347 0 l 1041 0 l 1041 174 l 868 174 l 868 1042 l 1041 1042 l 1041 1216 l 347 1216 "},"G":{"x_min":173.625,"x_max":1215.375,"ha":1389,"o":"m 1215 695 l 694 695 l 694 521 l 868 521 l 868 174 l 520 174 l 520 1042 l 868 1042 l 868 868 l 1215 868 l 1215 1042 l 1041 1042 l 1041 1216 l 347 1216 l 347 1042 l 173 1042 l 173 174 l 347 174 l 347 0 l 1215 0 l 1215 695 "},"`":{"x_min":520.875,"x_max":1041.75,"ha":1389,"o":"m 520 868 l 694 868 l 694 694 l 1041 694 l 1041 868 l 868 868 l 868 1215 l 520 1215 l 520 868 "},"·":{"x_min":520.875,"x_max":868.125,"ha":1389,"o":"m 520 521 l 868 521 l 868 868 l 520 868 l 520 521 "},"r":{"x_min":173.625,"x_max":1215.375,"ha":1389,"o":"m 173 0 l 520 0 l 520 695 l 868 695 l 868 521 l 1215 521 l 1215 695 l 1041 694 l 1041 868 l 173 868 l 173 0 "},"¿":{"x_min":173.625,"x_max":1215.375,"ha":1389,"o":"m 694 693 l 868 693 l 868 867 l 520 867 l 520 693 l 347 693 l 347 519 l 173 519 l 173 172 l 347 172 l 347 -2 l 1041 -2 l 1041 172 l 1215 172 l 1215 346 l 868 346 l 868 172 l 520 172 l 520 519 l 694 519 l 694 693 m 868 1214 l 520 1214 l 520 1040 l 868 1040 l 868 1214 "},"ý":{"x_min":173.625,"x_max":1215.375,"ha":1389,"o":"m 868 173 l 1041 173 l 1041 347 l 1215 347 l 1215 694 l 868 694 l 868 347 l 520 347 l 520 694 l 173 694 l 173 347 l 347 347 l 347 173 l 520 173 l 520 0 l 347 0 l 347 -174 l 694 -174 l 694 0 l 868 0 l 868 173 m 694 1042 l 520 1042 l 520 868 l 868 868 l 868 1042 l 1041 1042 l 1041 1216 l 694 1216 l 694 1042 "},"x":{"x_min":0,"x_max":1215.375,"ha":1389,"o":"m 520 174 l 520 347 l 694 347 l 694 174 l 868 174 l 868 0 l 1215 0 l 1215 174 l 1041 174 l 1041 347 l 868 347 l 868 521 l 1041 521 l 1041 694 l 1215 694 l 1215 868 l 868 868 l 868 694 l 694 694 l 694 521 l 520 521 l 520 694 l 347 694 l 347 868 l 0 868 l 0 694 l 173 694 l 173 521 l 347 521 l 347 347 l 173 347 l 173 174 l 0 174 l 0 0 l 347 0 l 347 174 l 520 174 "},"è":{"x_min":173.625,"x_max":1215.375,"ha":1389,"o":"m 868 868 l 868 1042 l 694 1042 l 694 1216 l 347 1216 l 347 1042 l 520 1042 l 520 868 l 347 868 l 347 694 l 173 694 l 173 174 l 347 174 l 347 0 l 1041 0 l 1041 174 l 520 174 l 520 347 l 1215 347 l 1215 694 l 1041 694 l 1041 868 l 868 868 m 520 694 l 868 694 l 868 521 l 520 521 l 520 694 "},"º":{"x_min":173.625,"x_max":1041.75,"ha":1389,"o":"m 347 1042 l 173 1042 l 173 521 l 347 521 l 347 347 l 868 347 l 868 521 l 1041 521 l 1041 1042 l 868 1042 l 868 1216 l 347 1216 l 347 1042 m 520 1042 l 694 1042 l 694 521 l 520 521 l 520 1042 "},"Ø":{"x_min":0,"x_max":1389,"ha":1389,"o":"m 1389 1042 l 1389 1216 l 347 1216 l 347 1042 l 173 1042 l 173 174 l 0 174 l 0 0 l 1041 0 l 1041 174 l 1215 174 l 1215 1042 l 1389 1042 m 694 521 l 868 521 l 868 174 l 520 174 l 520 347 l 694 347 l 694 521 m 694 694 l 520 694 l 520 1042 l 868 1042 l 868 868 l 694 868 l 694 694 "},"÷":{"x_min":173.625,"x_max":1215.375,"ha":1389,"o":"m 1215 521 l 1215 695 l 173 695 l 173 521 l 1215 521 m 868 173 l 868 347 l 520 347 l 520 173 l 868 173 m 868 1042 l 520 1042 l 520 868 l 868 868 l 868 1042 "},"h":{"x_min":173.625,"x_max":1215.375,"ha":1389,"o":"m 1041 868 l 520 868 l 520 1215 l 173 1215 l 173 0 l 520 0 l 520 694 l 868 694 l 868 0 l 1215 0 l 1215 694 l 1041 694 l 1041 868 "},".":{"x_min":520.875,"x_max":868.125,"ha":1389,"o":"m 868 0 l 868 347 l 520 347 l 520 0 l 868 0 "},";":{"x_min":347.25,"x_max":868.125,"ha":1389,"o":"m 520 0 l 347 0 l 347 -172 l 694 -172 l 694 0 l 868 0 l 868 347 l 520 347 l 520 0 m 520 1042 l 520 694 l 868 694 l 868 1042 l 520 1042 "},"f":{"x_min":173.625,"x_max":1041.75,"ha":1389,"o":"m 347 868 l 173 868 l 173 694 l 347 694 l 347 0 l 694 0 l 694 694 l 1041 694 l 1041 868 l 694 868 l 694 1042 l 1041 1042 l 1041 1216 l 520 1216 l 520 1042 l 347 1042 l 347 868 "},"A":{"x_min":173.625,"x_max":1215.375,"ha":1389,"o":"m 1215 0 l 1215 1042 l 1041 1042 l 1041 1216 l 347 1216 l 347 1042 l 173 1042 l 173 0 l 520 0 l 520 521 l 868 521 l 868 0 l 1215 0 m 520 695 l 520 1042 l 868 1042 l 868 695 l 520 695 "},"6":{"x_min":173.625,"x_max":1215.375,"ha":1389,"o":"m 1041 1216 l 520 1216 l 520 1042 l 347 1042 l 347 868 l 173 868 l 173 174 l 347 174 l 347 0 l 1041 0 l 1041 174 l 1215 174 l 1215 521 l 1041 521 l 1041 695 l 520 695 l 520 868 l 694 868 l 694 1042 l 1041 1042 l 1041 1216 m 868 174 l 520 174 l 520 521 l 868 521 l 868 174 "},"O":{"x_min":173.625,"x_max":1215.375,"ha":1389,"o":"m 1041 1042 l 1041 1216 l 347 1216 l 347 1042 l 173 1042 l 173 174 l 347 174 l 347 0 l 1041 0 l 1041 174 l 1215 174 l 1215 1042 l 1041 1042 m 868 174 l 520 174 l 520 1042 l 868 1042 l 868 174 "},"n":{"x_min":173.625,"x_max":1215.375,"ha":1389,"o":"m 173 0 l 520 0 l 520 694 l 868 694 l 868 0 l 1215 0 l 1215 694 l 1041 694 l 1041 868 l 173 868 l 173 0 "},"3":{"x_min":173.625,"x_max":1215.375,"ha":1389,"o":"m 520 347 l 173 347 l 173 173 l 347 173 l 347 0 l 1041 0 l 1041 173 l 1215 173 l 1215 521 l 1041 521 l 1041 695 l 1215 695 l 1215 1042 l 1041 1042 l 1041 1216 l 347 1216 l 347 1042 l 173 1042 l 173 868 l 520 868 l 520 1042 l 868 1042 l 868 695 l 520 695 l 520 521 l 868 521 l 868 173 l 520 173 l 520 347 "},"9":{"x_min":173.625,"x_max":1215.375,"ha":1389,"o":"m 1041 174 l 1041 347 l 1215 347 l 1215 1042 l 1041 1042 l 1041 1216 l 347 1216 l 347 1042 l 173 1042 l 173 695 l 347 695 l 347 521 l 868 521 l 868 347 l 694 347 l 694 174 l 347 174 l 347 0 l 868 0 l 868 174 l 1041 174 m 520 1042 l 868 1042 l 868 695 l 520 695 l 520 1042 "},"l":{"x_min":520.875,"x_max":1041.75,"ha":1389,"o":"m 868 174 l 868 1215 l 520 1215 l 520 174 l 694 174 l 694 0 l 1041 0 l 1041 174 l 868 174 "},"¤":{"x_min":173,"x_max":1216,"ha":1389,"o":"m 173 868 l 173 694 l 347 694 l 347 521 l 173 521 l 173 347 l 347 347 l 347 521 l 1042 521 l 1042 347 l 1216 347 l 1216 521 l 1042 521 l 1042 694 l 1216 694 l 1216 868 l 1042 868 l 1042 1042 l 1216 1042 l 1216 1216 l 1042 1216 l 1042 1042 l 347 1042 l 347 1216 l 173 1216 l 173 1042 l 347 1042 l 347 868 l 173 868 m 520 694 l 520 868 l 868 868 l 868 694 l 520 694 "},"4":{"x_min":0,"x_max":1215.375,"ha":1389,"o":"m 0 347 l 694 347 l 694 0 l 1041 0 l 1041 347 l 1215 347 l 1215 521 l 1041 521 l 1041 1215 l 520 1215 l 520 1041 l 347 1041 l 347 867 l 173 867 l 173 694 l 0 694 l 0 347 m 520 694 l 520 868 l 694 868 l 694 521 l 347 521 l 347 694 l 520 694 "},"p":{"x_min":173.625,"x_max":1215.375,"ha":1389,"o":"m 1041 347 l 1215 347 l 1215 694 l 1041 694 l 1041 868 l 173 868 l 173 -174 l 520 -174 l 520 173 l 1041 173 l 1041 347 m 520 694 l 868 694 l 868 347 l 520 347 l 520 694 "},"‡":{"x_min":4.0625,"x_max":1014.125,"ha":1083,"o":"m 819 1014 l 166 110 q 122 79 149 86 q 68 64 94 71 q 23 45 42 57 q 4 0 4 32 l 412 0 q 403 31 412 20 q 380 50 394 43 q 351 60 366 56 q 322 70 336 64 q 299 87 308 77 q 290 117 290 97 q 290 121 290 118 q 291 124 291 124 q 311 164 297 139 q 340 216 324 189 q 370 263 356 242 q 388 291 384 284 l 652 291 q 661 272 658 291 q 666 232 665 254 q 668 188 668 209 q 668 164 668 169 q 658 106 668 126 q 636 76 649 85 q 606 63 622 66 q 577 54 591 59 q 554 36 563 48 q 545 0 545 24 l 1014 0 l 1014 41 q 958 63 979 51 q 926 91 937 75 q 910 133 915 108 q 903 194 905 158 l 842 1014 l 819 1014 m 638 638 q 653 492 650 566 q 657 347 657 419 l 430 347 q 436 360 431 349 q 444 374 441 372 q 483 427 455 390 q 541 507 511 465 q 600 586 572 549 q 638 638 627 623 "},"à":{"x_min":173.625,"x_max":1215.375,"ha":1389,"o":"m 868 1042 l 694 1042 l 694 1216 l 347 1216 l 347 1042 l 520 1042 l 520 868 l 347 868 l 347 694 l 868 694 l 868 521 l 347 521 l 347 347 l 173 347 l 173 174 l 347 174 l 347 0 l 1215 0 l 1215 694 l 1041 694 l 1041 868 l 868 868 l 868 1042 m 520 347 l 868 347 l 868 174 l 520 173 l 520 347 "},"Ü":{"x_min":173.625,"x_max":1215.375,"ha":1389,"o":"m 1215 868 l 868 868 l 868 174 l 520 174 l 520 868 l 173 868 l 173 174 l 347 174 l 347 0 l 1041 0 l 1041 174 l 1215 174 l 1215 868 m 1215 1216 l 868 1216 l 868 1042 l 1215 1042 l 1215 1216 m 520 1216 l 173 1216 l 173 1042 l 520 1042 l 520 1216 "},"ó":{"x_min":173.625,"x_max":1215.375,"ha":1389,"o":"m 868 694 l 868 868 l 1041 868 l 1041 1042 l 694 1042 l 694 868 l 520 868 l 520 694 l 347 694 l 347 521 l 173 521 l 173 174 l 347 174 l 347 0 l 1041 0 l 1041 174 l 1215 174 l 1215 521 l 1041 521 l 1041 694 l 868 694 m 520 521 l 868 521 l 868 174 l 520 174 l 520 521 "}}}
